<svg id="Layer_1" data-name="Layer 1" xmlns="http://www.w3.org/2000/svg" viewBox="0 0 155 48">
  <defs>
    <style>
      .cls-1 {
        fill: #15aa5b;
      }

      .cls-2, .cls-3 {
        fill: #fff;
      }

      .cls-3 {
        stroke: #fff;
        stroke-miterlimit: 10;
      }
    </style>
  </defs>
  <title>download-button-155-48</title>
  <rect class="cls-1" width="155" height="48" rx="24"/>
  <g>
    <path class="cls-2" d="M11.6,15.73h5.5a8.9,8.9,0,0,1,4,.85A5.83,5.83,0,0,1,23.69,19a7.61,7.61,0,0,1,.89,3.81,7.85,7.85,0,0,1-.88,3.85,5.89,5.89,0,0,1-2.56,2.45,8.93,8.93,0,0,1-4,.84H11.6Zm5.3,11.73q4.56,0,4.56-4.63T16.9,18.25H14.72v9.21Z" transform="translate(0 0)"/>
    <path class="cls-2" d="M28.83,29.5A4.52,4.52,0,0,1,27,27.66a5.86,5.86,0,0,1-.65-2.81A5.78,5.78,0,0,1,27,22.06a4.4,4.4,0,0,1,1.86-1.84,5.94,5.94,0,0,1,2.83-.64,5.82,5.82,0,0,1,2.8.64,4.32,4.32,0,0,1,1.85,1.84A5.67,5.67,0,0,1,37,24.85a5.75,5.75,0,0,1-.65,2.81,4.44,4.44,0,0,1-1.85,1.84,5.93,5.93,0,0,1-2.8.63A6.06,6.06,0,0,1,28.83,29.5Zm4.54-2.4A3.54,3.54,0,0,0,34,24.85a3.5,3.5,0,0,0-.59-2.22,2,2,0,0,0-1.71-.75,2.1,2.1,0,0,0-1.74.75,3.5,3.5,0,0,0-.6,2.22c0,2,.78,3,2.34,3A2.05,2.05,0,0,0,33.37,27.1Z" transform="translate(0 0)"/>
    <path class="cls-2" d="M52.36,19.83h2.92L51.18,30H48.64l-2.3-5.87L44.14,30H41.58l-4.1-10.14h3.08L43,26.38l2.42-6.55h2.06l2.44,6.61Z" transform="translate(0 0)"/>
    <path class="cls-2" d="M66.38,23.83V30h-3V24A2.47,2.47,0,0,0,63,22.43a1.47,1.47,0,0,0-1.23-.49,2.09,2.09,0,0,0-1.6.64,2.39,2.39,0,0,0-.6,1.71V30h-3V22.73a23.12,23.12,0,0,0-.16-2.9H59.2l.2,1.61a3.66,3.66,0,0,1,1.41-1.38,3.91,3.91,0,0,1,2-.48Q66.38,19.58,66.38,23.83Z" transform="translate(0 0)"/>
    <path class="cls-2" d="M68.78,30V15.25h3V30Z" transform="translate(0 0)"/>
    <path class="cls-2" d="M76.27,29.5a4.52,4.52,0,0,1-1.86-1.84,5.86,5.86,0,0,1-.65-2.81,5.78,5.78,0,0,1,.65-2.79,4.4,4.4,0,0,1,1.86-1.84,5.94,5.94,0,0,1,2.83-.64,5.82,5.82,0,0,1,2.8.64,4.32,4.32,0,0,1,1.85,1.84,5.67,5.67,0,0,1,.65,2.79,5.75,5.75,0,0,1-.65,2.81A4.44,4.44,0,0,1,81.9,29.5a5.93,5.93,0,0,1-2.8.63A6.06,6.06,0,0,1,76.27,29.5Zm4.54-2.4a3.54,3.54,0,0,0,.59-2.25,3.5,3.5,0,0,0-.59-2.22,2,2,0,0,0-1.71-.75,2.1,2.1,0,0,0-1.74.75,3.5,3.5,0,0,0-.6,2.22c0,2,.78,3,2.34,3A2.05,2.05,0,0,0,80.81,27.1Z" transform="translate(0 0)"/>
    <path class="cls-2" d="M96.5,19.83V30h-3v-1.5a3.15,3.15,0,0,1-1.3,1.23,4.06,4.06,0,0,1-1.9.43,4.12,4.12,0,0,1-3.91-2.46,6.32,6.32,0,0,1-.57-2.75,6.48,6.48,0,0,1,.57-2.78A4.37,4.37,0,0,1,88,20.25a4.12,4.12,0,0,1,2.32-.67,3.84,3.84,0,0,1,1.9.46,3.22,3.22,0,0,1,1.3,1.23V19.83Zm-3.58,7.25a3.51,3.51,0,0,0,.6-2.2,3.53,3.53,0,0,0-.6-2.21,2,2,0,0,0-1.72-.77,2.07,2.07,0,0,0-1.74.8,3.55,3.55,0,0,0-.62,2.22,3.39,3.39,0,0,0,.61,2.16,2.13,2.13,0,0,0,1.75.75A2.07,2.07,0,0,0,92.92,27.08Z" transform="translate(0 0)"/>
    <path class="cls-2" d="M109.1,15.25V30h-3v-1.5a3.15,3.15,0,0,1-1.3,1.23,4.06,4.06,0,0,1-1.9.43,4.12,4.12,0,0,1-2.32-.67A4.4,4.4,0,0,1,99,27.58a6.38,6.38,0,0,1-.57-2.77A6.32,6.32,0,0,1,99,22.06a4.37,4.37,0,0,1,1.58-1.83,4.17,4.17,0,0,1,2.33-.65,4.1,4.1,0,0,1,1.86.42,3.15,3.15,0,0,1,1.3,1.2V15.25Zm-3.58,11.81a3.53,3.53,0,0,0,.6-2.21,3.41,3.41,0,0,0-.61-2.18,2,2,0,0,0-1.71-.77,2.13,2.13,0,0,0-1.74.76,3.32,3.32,0,0,0-.62,2.15,3.52,3.52,0,0,0,.62,2.23,2.09,2.09,0,0,0,1.74.79A2,2,0,0,0,105.52,27.06Z" transform="translate(0 0)"/>
  </g>
  <g>
    <path class="cls-3" d="M143.85,18.48a9.61,9.61,0,0,0-9.47-9.08,9.89,9.89,0,0,0-7.82,3.93l-.13-.06-.34-.15-.19-.07-.35-.1-.19,0-.39-.07-.17,0a5.12,5.12,0,0,0-.56,0,5,5,0,0,0-5,5,1.55,1.55,0,0,0,0,.22,7.75,7.75,0,0,0-3.94,6.6,7.22,7.22,0,0,0,7.21,7.2h2.89a.56.56,0,1,0,0-1.12h-2.89a6.08,6.08,0,0,1-6.08-6.08,6.66,6.66,0,0,1,3.6-5.75l.32-.15v-.36c0-.06,0-.13,0-.2V18c0-.05,0-.1,0-.15a3.93,3.93,0,0,1,3.93-3.92,2.92,2.92,0,0,1,.51,0l.13,0a3.12,3.12,0,0,1,.44.09l.06,0a3.8,3.8,0,0,1,.47.18l.12.06a3,3,0,0,1,.39.22,3.92,3.92,0,0,1,1.8,3.29.56.56,0,1,0,1.12,0A5.06,5.06,0,0,0,127.49,14a8.89,8.89,0,0,1,6.89-3.44,8.46,8.46,0,0,1,8.32,7.79,10.79,10.79,0,0,0-2.29.07.56.56,0,0,0,.09,1.12h.08a10.29,10.29,0,0,1,2.63,0,5.74,5.74,0,0,1,4.58,5.6,5.63,5.63,0,0,1-5.63,5.62h-2.22a.56.56,0,0,0,0,1.12h2.22a6.75,6.75,0,0,0,6.75-6.74A6.91,6.91,0,0,0,143.85,18.48Z" transform="translate(0 0)"/>
    <path class="cls-3" d="M136.74,32.56l-3.53,3.53V24.54a.56.56,0,1,0-1.12,0V36.09l-3.53-3.53a.56.56,0,1,0-.79.79l4.48,4.49a.54.54,0,0,0,.4.16.52.52,0,0,0,.21,0,.57.57,0,0,0,.18-.12l4.49-4.49a.56.56,0,0,0-.79-.79Z" transform="translate(0 0)"/>
  </g>
</svg>
