<svg id="Layer_1" data-name="Layer 1" xmlns="http://www.w3.org/2000/svg" xmlns:xlink="http://www.w3.org/1999/xlink" viewBox="0 0 1349.63 460">
  <defs>
    <style>
      .cls-1 {
        fill: url(#radial-gradient);
      }

      .cls-2 {
        fill: url(#radial-gradient-3);
      }

      .cls-3 {
        fill: url(#linear-gradient);
      }

      .cls-4 {
        fill: #fff;
      }

      .cls-5 {
        fill: url(#linear-gradient-2);
      }

      .cls-6 {
        fill: url(#linear-gradient-3);
      }

      .cls-7 {
        fill: url(#linear-gradient-4);
      }

      .cls-8 {
        fill: url(#linear-gradient-5);
      }

      .cls-9 {
        fill: url(#linear-gradient-6);
      }

      .cls-10 {
        fill: url(#linear-gradient-7);
      }

      .cls-11 {
        fill: url(#linear-gradient-8);
      }

      .cls-12 {
        fill: url(#linear-gradient-9);
      }

      .cls-13 {
        fill: url(#linear-gradient-10);
      }

      .cls-14 {
        fill: url(#linear-gradient-11);
      }

      .cls-15 {
        fill: url(#linear-gradient-12);
      }

      .cls-16 {
        fill: url(#linear-gradient-13);
      }

      .cls-17 {
        fill: url(#linear-gradient-14);
      }

      .cls-18 {
        fill: url(#linear-gradient-15);
      }

      .cls-19 {
        fill: url(#linear-gradient-16);
      }

      .cls-20 {
        fill: url(#linear-gradient-17);
      }

      .cls-21 {
        fill: url(#linear-gradient-18);
      }

      .cls-22 {
        fill: url(#linear-gradient-19);
      }

      .cls-23 {
        fill: url(#linear-gradient-20);
      }

      .cls-24 {
        fill: url(#linear-gradient-21);
      }

      .cls-25 {
        fill: url(#linear-gradient-22);
      }

      .cls-26 {
        fill: url(#linear-gradient-23);
      }

      .cls-27 {
        fill: url(#linear-gradient-24);
      }

      .cls-28 {
        fill: url(#linear-gradient-25);
      }

      .cls-29 {
        fill: url(#linear-gradient-26);
      }

      .cls-30 {
        fill: url(#linear-gradient-27);
      }

      .cls-31 {
        fill: url(#linear-gradient-28);
      }

      .cls-32 {
        fill: url(#linear-gradient-29);
      }

      .cls-33 {
        fill: url(#linear-gradient-30);
      }

      .cls-34 {
        fill: url(#linear-gradient-31);
      }

      .cls-35 {
        fill: url(#linear-gradient-32);
      }

      .cls-36 {
        fill: url(#linear-gradient-33);
      }

      .cls-37 {
        fill: url(#linear-gradient-34);
      }

      .cls-38 {
        fill: url(#linear-gradient-35);
      }

      .cls-39 {
        fill: url(#linear-gradient-36);
      }

      .cls-40 {
        fill: url(#linear-gradient-37);
      }

      .cls-41 {
        fill: url(#linear-gradient-38);
      }

      .cls-42 {
        fill: url(#linear-gradient-39);
      }

      .cls-43 {
        fill: url(#linear-gradient-40);
      }

      .cls-44 {
        fill: url(#linear-gradient-41);
      }

      .cls-45 {
        fill: url(#linear-gradient-42);
      }

      .cls-46 {
        fill: url(#linear-gradient-43);
      }

      .cls-47 {
        fill: url(#linear-gradient-44);
      }

      .cls-48 {
        fill: url(#linear-gradient-45);
      }

      .cls-49 {
        fill: url(#linear-gradient-46);
      }

      .cls-50 {
        fill: url(#linear-gradient-47);
      }

      .cls-51 {
        fill: url(#linear-gradient-48);
      }

      .cls-52 {
        fill: url(#linear-gradient-49);
      }

      .cls-53 {
        fill: #57afff;
        opacity: 0.3;
      }
    </style>
    <radialGradient id="radial-gradient" cx="413.58" cy="619.52" r="312.9" gradientTransform="matrix(1, 0, 0, -1, 0, 462)" gradientUnits="userSpaceOnUse">
      <stop offset="0" stop-color="#b0b0b0"/>
      <stop offset="0.15" stop-color="silver"/>
      <stop offset="0.51" stop-color="#e2e2e2"/>
      <stop offset="0.8" stop-color="#f7f7f7"/>
      <stop offset="1" stop-color="#fff"/>
    </radialGradient>
    <radialGradient id="radial-gradient-3" cx="51.9" cy="44.36" r="438.42" xlink:href="#radial-gradient"/>
    <linearGradient id="linear-gradient" x1="-102.05" y1="278.49" x2="47.66" y2="428.21" gradientTransform="matrix(1, 0, 0, -1, 0, 462)" gradientUnits="userSpaceOnUse">
      <stop offset="0" stop-color="#fbfbfb"/>
      <stop offset="0.42" stop-color="#f5f5f5"/>
      <stop offset="0.99" stop-color="#e4e3e4"/>
      <stop offset="1" stop-color="#e4e3e4"/>
    </linearGradient>
    <linearGradient id="linear-gradient-2" x1="72.72" y1="348.15" x2="222.44" y2="497.87" xlink:href="#linear-gradient"/>
    <linearGradient id="linear-gradient-3" x1="10.56" y1="410.31" x2="160.27" y2="560.03" xlink:href="#linear-gradient"/>
    <linearGradient id="linear-gradient-4" x1="35.13" y1="385.75" x2="184.84" y2="535.46" xlink:href="#linear-gradient"/>
    <linearGradient id="linear-gradient-5" x1="65.76" y1="355.1" x2="215.48" y2="504.82" xlink:href="#linear-gradient"/>
    <linearGradient id="linear-gradient-6" x1="10.13" y1="232.17" x2="159.84" y2="381.88" xlink:href="#linear-gradient"/>
    <linearGradient id="linear-gradient-7" x1="23.2" y1="219.1" x2="172.91" y2="368.81" xlink:href="#linear-gradient"/>
    <linearGradient id="linear-gradient-8" x1="-36.27" y1="278.57" x2="113.44" y2="428.28" xlink:href="#linear-gradient"/>
    <linearGradient id="linear-gradient-9" x1="170.49" y1="316.13" x2="320.2" y2="465.85" xlink:href="#linear-gradient"/>
    <linearGradient id="linear-gradient-10" x1="183.25" y1="303.37" x2="332.97" y2="453.09" xlink:href="#linear-gradient"/>
    <linearGradient id="linear-gradient-11" x1="176.22" y1="310.4" x2="325.94" y2="460.12" xlink:href="#linear-gradient"/>
    <linearGradient id="linear-gradient-12" x1="345.3" y1="385.75" x2="495.02" y2="535.46" xlink:href="#linear-gradient"/>
    <linearGradient id="linear-gradient-13" x1="320.74" y1="410.31" x2="470.45" y2="560.03" xlink:href="#linear-gradient"/>
    <linearGradient id="linear-gradient-14" x1="396.65" y1="334.4" x2="546.37" y2="484.11" xlink:href="#linear-gradient"/>
    <linearGradient id="linear-gradient-15" x1="396.16" y1="156.32" x2="545.87" y2="306.03" xlink:href="#linear-gradient"/>
    <linearGradient id="linear-gradient-16" x1="361.26" y1="191.21" x2="510.98" y2="340.92" xlink:href="#linear-gradient"/>
    <linearGradient id="linear-gradient-17" x1="314.97" y1="237.51" x2="464.68" y2="387.22" xlink:href="#linear-gradient"/>
    <linearGradient id="linear-gradient-18" x1="266.7" y1="285.77" x2="416.42" y2="435.49" xlink:href="#linear-gradient"/>
    <linearGradient id="linear-gradient-19" x1="332.15" y1="220.32" x2="481.86" y2="370.04" xlink:href="#linear-gradient"/>
    <linearGradient id="linear-gradient-20" x1="339.25" y1="213.22" x2="488.96" y2="362.94" xlink:href="#linear-gradient"/>
    <linearGradient id="linear-gradient-21" x1="314.59" y1="237.88" x2="464.31" y2="387.59" xlink:href="#linear-gradient"/>
    <linearGradient id="linear-gradient-22" x1="400.7" y1="151.77" x2="550.42" y2="301.49" xlink:href="#linear-gradient"/>
    <linearGradient id="linear-gradient-23" x1="272.76" y1="279.71" x2="422.47" y2="429.43" xlink:href="#linear-gradient"/>
    <linearGradient id="linear-gradient-24" x1="297.02" y1="255.45" x2="446.74" y2="405.16" xlink:href="#linear-gradient"/>
    <linearGradient id="linear-gradient-25" x1="1255.07" y1="227.94" x2="1404.78" y2="377.66" xlink:href="#linear-gradient"/>
    <linearGradient id="linear-gradient-26" x1="1239.07" y1="243.93" x2="1388.79" y2="393.65" xlink:href="#linear-gradient"/>
    <linearGradient id="linear-gradient-27" x1="-102.05" y1="99.3" x2="47.66" y2="249.02" xlink:href="#linear-gradient"/>
    <linearGradient id="linear-gradient-28" x1="-106.59" y1="-74.74" x2="43.13" y2="74.97" xlink:href="#linear-gradient"/>
    <linearGradient id="linear-gradient-29" x1="-36.27" y1="99.37" x2="113.44" y2="249.09" xlink:href="#linear-gradient"/>
    <linearGradient id="linear-gradient-30" x1="23.19" y1="39.91" x2="172.9" y2="189.63" xlink:href="#linear-gradient"/>
    <linearGradient id="linear-gradient-31" x1="10.13" y1="52.97" x2="159.84" y2="202.69" xlink:href="#linear-gradient"/>
    <linearGradient id="linear-gradient-32" x1="-12.64" y1="-102.84" x2="137.08" y2="46.88" xlink:href="#linear-gradient"/>
    <linearGradient id="linear-gradient-33" x1="-42.79" y1="-72.69" x2="106.93" y2="77.03" xlink:href="#linear-gradient"/>
    <linearGradient id="linear-gradient-34" x1="178.28" y1="129.15" x2="327.99" y2="278.87" xlink:href="#linear-gradient"/>
    <linearGradient id="linear-gradient-35" x1="171.64" y1="-42.8" x2="321.36" y2="106.92" xlink:href="#linear-gradient"/>
    <linearGradient id="linear-gradient-36" x1="350.95" y1="22.33" x2="500.66" y2="172.05" xlink:href="#linear-gradient"/>
    <linearGradient id="linear-gradient-37" x1="365.9" y1="7.38" x2="515.62" y2="157.09" xlink:href="#linear-gradient"/>
    <linearGradient id="linear-gradient-38" x1="308.54" y1="64.74" x2="458.25" y2="214.46" xlink:href="#linear-gradient"/>
    <linearGradient id="linear-gradient-39" x1="327.11" y1="46.17" x2="476.82" y2="195.89" xlink:href="#linear-gradient"/>
    <linearGradient id="linear-gradient-40" x1="397.67" y1="-24.39" x2="547.39" y2="125.32" xlink:href="#linear-gradient"/>
    <linearGradient id="linear-gradient-41" x1="333.37" y1="39.91" x2="483.08" y2="189.63" xlink:href="#linear-gradient"/>
    <linearGradient id="linear-gradient-42" x1="942.47" y1="-127.41" x2="1092.18" y2="22.31" xlink:href="#linear-gradient"/>
    <linearGradient id="linear-gradient-43" x1="917.9" y1="-102.84" x2="1067.61" y2="46.88" xlink:href="#linear-gradient"/>
    <linearGradient id="linear-gradient-44" x1="1108.81" y1="129.15" x2="1258.53" y2="278.87" xlink:href="#linear-gradient"/>
    <linearGradient id="linear-gradient-45" x1="1102.18" y1="-42.8" x2="1251.9" y2="106.92" xlink:href="#linear-gradient"/>
    <linearGradient id="linear-gradient-46" x1="1255.07" y1="48.75" x2="1404.78" y2="198.46" xlink:href="#linear-gradient"/>
    <linearGradient id="linear-gradient-47" x1="1239.07" y1="64.74" x2="1388.79" y2="214.46" xlink:href="#linear-gradient"/>
    <linearGradient id="linear-gradient-48" x1="1217.06" y1="-91.83" x2="1366.78" y2="57.89" xlink:href="#linear-gradient"/>
    <linearGradient id="linear-gradient-49" x1="1197.92" y1="-72.69" x2="1347.64" y2="77.03" xlink:href="#linear-gradient"/>
  </defs>
  <title>1</title>
  <g>
    <path class="cls-1" d="M196.17,3.51l2-3.51h-8l-.71,1.23Q192.82,2.34,196.17,3.51Z"/>
    <path class="cls-1" d="M344.3,91c1.76,1.57,3.5,3.16,5.24,4.76l6.37-11h99.31l24.83,43,10.48,18.15A313.52,313.52,0,0,0,684,0H500.33L480.05,35.12l-24.83,43H355.91L310.81,0h-8.05l47,81.45Z"/>
    <path class="cls-2" d="M488.57,378.14l-14.08,24.38-19.27,33.37H355.91l-49.65-86,49.65-86h99.31l17.45,30.22A435.11,435.11,0,0,0,458,252l-2.73,4.72H355.91l-49.65-86L322.82,142q-3.39-1-6.75-2.13l-15.93,27.59H200.82l-49.65-86L173.37,43c-1.59-1.91-3.16-3.83-4.71-5.78l-23.61,40.9H45.73L.63,0H0V12.84L39.61,81.45,0,150.07V163.9L45.73,84.68h99.32l49.65,86-49.65,86H45.73L0,177.49V192l39.61,68.62L0,329.26v13.83l45.73-79.21h99.32l49.65,86-49.65,86H45.73L0,356.68v13.93l39.61,68.62L27.62,460h8l10.12-17.54h99.32L155.17,460h8l-12-20.77,49.65-86h99.32l49.65,86L337.8,460H488.3q2-20.91,2-42.36Q490.33,397.67,488.57,378.14ZM200.82,346.65h0l-49.65-86,49.65-86h99.32l49.65,86-49.65,86Z"/>
    <path class="cls-1" d="M344.3,91l-28.23,48.9q3.36,1.09,6.75,2.13l26.72-46.27C347.8,94.13,346.06,92.54,344.3,91Z"/>
    <path class="cls-2" d="M344.3,91l-28.23,48.9q3.36,1.09,6.75,2.13l26.72-46.27C347.8,94.13,346.06,92.54,344.3,91Z"/>
    <path class="cls-1" d="M189.44,1.23l-20.78,36c1.55,2,3.12,3.87,4.71,5.78l22.8-39.48Q192.81,2.35,189.44,1.23Z"/>
    <path class="cls-2" d="M189.44,1.23l-20.78,36c1.55,2,3.12,3.87,4.71,5.78l22.8-39.48Q192.81,2.35,189.44,1.23Z"/>
    <polygon class="cls-2" points="0 17.77 0 145.14 36.77 81.45 0 17.77"/>
    <polygon class="cls-3" points="0 17.77 0 145.14 36.77 81.45 0 17.77"/>
    <polygon class="cls-4" points="0 12.84 0 17.77 36.77 81.45 0 145.14 0 150.07 39.61 81.45 0 12.84"/>
    <path class="cls-1" d="M187.31,0h-1.66l1.4.44Z"/>
    <path class="cls-5" d="M187.31,0h-1.66l1.4.44Z"/>
    <polygon class="cls-2" points="45.73 78.12 0.63 0 0.63 0 45.73 78.12 45.73 78.12"/>
    <polygon class="cls-6" points="45.73 78.12 0.63 0 0.63 0 45.73 78.12 45.73 78.12"/>
    <path class="cls-2" d="M143.63,75.66,167,35.14A312.9,312.9,0,0,1,143.18,0H3.47L47.16,75.66Z"/>
    <path class="cls-7" d="M143.63,75.66,167,35.14A312.9,312.9,0,0,1,143.18,0H3.47L47.16,75.66Z"/>
    <path class="cls-1" d="M187.05.44,185.65,0H143.18A312.9,312.9,0,0,0,167,35.14Z"/>
    <path class="cls-2" d="M187.05.44,185.65,0H143.18A312.9,312.9,0,0,0,167,35.14Z"/>
    <path class="cls-8" d="M187.05.44,185.65,0H143.18A312.9,312.9,0,0,0,167,35.14Z"/>
    <polygon class="cls-4" points="145.05 78.12 168.66 37.21 189.44 1.23 190.15 0 187.31 0 187.05 0.45 167.02 35.14 143.63 75.66 47.16 75.66 3.47 0 0.63 0 45.73 78.12 145.05 78.12"/>
    <polygon class="cls-2" points="45.73 256.7 0 177.49 0 177.49 45.73 256.7 45.73 256.7"/>
    <polygon class="cls-9" points="45.73 256.7 0 177.49 0 177.49 45.73 256.7 45.73 256.7"/>
    <polygon class="cls-2" points="143.63 254.24 191.86 170.69 143.63 87.15 47.16 87.15 0 168.82 0 172.56 47.16 254.24 143.63 254.24"/>
    <polygon class="cls-10" points="143.63 254.24 191.86 170.69 143.63 87.15 47.16 87.15 0 168.82 0 172.56 47.16 254.24 143.63 254.24"/>
    <polygon class="cls-2" points="45.73 84.68 0 163.9 0 163.9 45.73 84.68 45.73 84.68"/>
    <polygon class="cls-11" points="45.73 84.68 0 163.9 0 163.9 45.73 84.68 45.73 84.68"/>
    <polygon class="cls-4" points="145.05 256.7 194.7 170.69 145.05 84.68 45.73 84.68 0 163.9 0 168.82 47.16 87.15 143.63 87.15 191.86 170.69 143.63 254.24 47.16 254.24 0 172.56 0 177.49 45.73 256.7 145.05 256.7"/>
    <path class="cls-1" d="M342.42,89.29,347,81.45,299.92,0H201l-2.51,4.34A438.16,438.16,0,0,1,342.42,89.29Z"/>
    <path class="cls-12" d="M342.42,89.29,347,81.45,299.92,0H201l-2.51,4.34A438.16,438.16,0,0,1,342.42,89.29Z"/>
    <path class="cls-2" d="M175.06,45,154,81.45,202.24,165h96.47l15-25.91A313.46,313.46,0,0,1,175.06,45Z"/>
    <path class="cls-13" d="M175.06,45,154,81.45,202.24,165h96.47l15-25.91A313.46,313.46,0,0,1,175.06,45Z"/>
    <path class="cls-1" d="M175.06,45a313.5,313.5,0,0,0,138.61,94.1l28.75-49.8a438,438,0,0,0-143.89-85Z"/>
    <path class="cls-2" d="M175.06,45a313.5,313.5,0,0,0,138.61,94.1l28.75-49.8a438,438,0,0,0-143.89-85Z"/>
    <path class="cls-14" d="M175.06,45a313.5,313.5,0,0,0,138.61,94.1l28.75-49.8a438,438,0,0,0-143.89-85Z"/>
    <polygon class="cls-4" points="173.37 42.99 151.17 81.45 200.82 167.46 200.82 167.46 300.14 167.46 316.07 139.87 344.3 90.97 349.79 81.45 302.76 0 299.92 0 346.95 81.45 342.43 89.29 313.67 139.09 298.71 165 202.24 165 154.01 81.45 175.06 44.99 198.53 4.34 201.04 0 198.19 0 196.17 3.51 173.37 42.99"/>
    <polygon class="cls-1" points="453.8 75.66 497.49 0 313.65 0 357.33 75.66 453.8 75.66"/>
    <polygon class="cls-15" points="453.8 75.66 497.49 0 313.65 0 357.33 75.66 453.8 75.66"/>
    <polygon class="cls-1" points="310.81 0 310.81 0 355.91 78.12 310.81 0"/>
    <polygon class="cls-16" points="310.81 0 310.81 0 355.91 78.12 310.81 0"/>
    <polygon class="cls-1" points="455.23 78.12 480.05 35.12 455.23 78.12 455.23 78.12"/>
    <polygon class="cls-17" points="455.23 78.12 480.05 35.12 455.23 78.12 455.23 78.12"/>
    <polygon class="cls-4" points="455.23 78.12 480.05 35.12 500.33 0 497.49 0 453.8 75.66 357.33 75.66 313.65 0 310.81 0 355.91 78.12 455.23 78.12"/>
    <polygon class="cls-18" points="457.95 251.98 480.05 213.69 457.95 251.98 457.95 251.98"/>
    <path class="cls-19" d="M488,146.44a313.41,313.41,0,0,1-74.46,8.94c-3.5,0-7-.08-10.45-.19a438.34,438.34,0,0,1,53.63,93.93L502,170.69Z"/>
    <path class="cls-1" d="M403.13,155.19c3.47.11,6.95.19,10.45.19A313.14,313.14,0,0,0,488,146.44L453.8,87.15H357.33l-5.94,10.3A440.88,440.88,0,0,1,403.13,155.19Z"/>
    <path class="cls-20" d="M403.13,155.19c3.47.11,6.95.19,10.45.19A313.14,313.14,0,0,0,488,146.44L453.8,87.15H357.33l-5.94,10.3A440.88,440.88,0,0,1,403.13,155.19Z"/>
    <polygon class="cls-1" points="355.91 84.68 349.54 95.73 349.54 95.73 355.91 84.68"/>
    <polygon class="cls-21" points="355.91 84.68 349.54 95.73 349.54 95.73 355.91 84.68"/>
    <polygon class="cls-1" points="455.23 84.68 455.23 84.68 480.05 127.69 455.23 84.68"/>
    <polygon class="cls-22" points="455.23 84.68 455.23 84.68 480.05 127.69 455.23 84.68"/>
    <path class="cls-2" d="M325.25,142.72l-16.15,28,48.23,83.55H453.8l3-5.12a438.34,438.34,0,0,0-53.63-93.93A312.72,312.72,0,0,1,325.25,142.72Z"/>
    <path class="cls-23" d="M325.25,142.72l-16.15,28,48.23,83.55H453.8l3-5.12a438.34,438.34,0,0,0-53.63-93.93A312.72,312.72,0,0,1,325.25,142.72Z"/>
    <polygon class="cls-2" points="322.82 142 322.82 142 306.26 170.69 355.91 256.7 306.26 170.69 322.82 142"/>
    <polygon class="cls-24" points="322.82 142 322.82 142 306.26 170.69 355.91 256.7 306.26 170.69 322.82 142"/>
    <polygon class="cls-2" points="455.23 256.7 455.23 256.7 457.95 251.98 457.95 251.98 455.23 256.7"/>
    <polygon class="cls-25" points="455.23 256.7 455.23 256.7 457.95 251.98 457.95 251.98 455.23 256.7"/>
    <polygon class="cls-1" points="349.54 95.73 349.54 95.73 322.82 142 322.82 142 349.54 95.73"/>
    <polygon class="cls-2" points="349.54 95.73 349.54 95.73 322.82 142 322.82 142 349.54 95.73"/>
    <polygon class="cls-26" points="349.54 95.73 349.54 95.73 322.82 142 322.82 142 349.54 95.73"/>
    <path class="cls-1" d="M351.39,97.45l-26.14,45.27a312.45,312.45,0,0,0,77.88,12.47A440.88,440.88,0,0,0,351.39,97.45Z"/>
    <path class="cls-2" d="M351.39,97.45l-26.14,45.27a312.45,312.45,0,0,0,77.88,12.47A440.88,440.88,0,0,0,351.39,97.45Z"/>
    <path class="cls-27" d="M351.39,97.45l-26.14,45.27a312.45,312.45,0,0,0,77.88,12.47A440.88,440.88,0,0,0,351.39,97.45Z"/>
    <path class="cls-4" d="M455.22,84.68H355.91l-6.37,11L322.82,142l-16.56,28.69,49.65,86h99.31L458,252l22.1-38.28,24.83-43-14.35-24.85L480.1,127.72ZM453.8,254.24H357.33L309.1,170.69l16.15-28,26.14-45.27,5.94-10.3H453.8L488,146.44l14,24.25-45.28,78.43Z"/>
    <polygon class="cls-28" points="1239.64 170.69 1287.87 254.24 1349 254.24 1349 87.15 1287.87 87.15 1239.64 170.69"/>
    <polygon class="cls-29" points="1286.45 84.68 1286.45 84.68 1236.79 170.69 1286.45 256.7 1286.45 256.7 1236.79 170.69 1286.45 84.68"/>
    <polygon class="cls-4" points="1236.79 170.69 1286.45 256.7 1349 256.7 1349 254.24 1287.87 254.24 1239.64 170.69 1287.87 87.15 1349 87.15 1349 84.68 1286.45 84.68 1236.79 170.69"/>
    <polygon class="cls-2" points="0 196.96 0 324.34 36.77 260.65 0 196.96"/>
    <polygon class="cls-30" points="0 196.96 0 324.34 36.77 260.65 0 196.96"/>
    <polygon class="cls-4" points="0 192.03 0 196.96 36.77 260.65 0 324.34 0 329.26 39.61 260.65 0 192.03"/>
    <polygon class="cls-2" points="0 375.54 0 460 24.78 460 36.77 439.23 0 375.54"/>
    <polygon class="cls-31" points="0 375.54 0 460 24.78 460 36.77 439.23 0 375.54"/>
    <polygon class="cls-4" points="0 370.61 0 375.54 36.77 439.23 24.78 460 27.62 460 39.61 439.23 0 370.61"/>
    <polygon class="cls-2" points="45.73 263.88 0 343.09 0 343.09 45.73 263.88 45.73 263.88"/>
    <polygon class="cls-32" points="45.73 263.88 0 343.09 0 343.09 45.73 263.88 45.73 263.88"/>
    <polygon class="cls-2" points="143.63 433.43 191.86 349.89 143.63 266.34 47.16 266.34 0 348.02 0 351.75 47.16 433.43 143.63 433.43"/>
    <polygon class="cls-33" points="143.63 433.43 191.86 349.89 143.63 266.34 47.16 266.34 0 348.02 0 351.75 47.16 433.43 143.63 433.43"/>
    <polygon class="cls-2" points="45.73 435.89 0 356.68 0 356.68 45.73 435.89 45.73 435.89"/>
    <polygon class="cls-34" points="45.73 435.89 0 356.68 0 356.68 45.73 435.89 45.73 435.89"/>
    <polygon class="cls-4" points="145.05 435.89 194.7 349.89 145.05 263.88 45.73 263.88 0 343.09 0 348.02 47.16 266.34 143.63 266.34 191.86 349.89 143.63 433.43 47.16 433.43 0 351.75 0 356.68 45.73 435.89 145.05 435.89"/>
    <polygon class="cls-2" points="47.16 444.92 38.45 460 152.33 460 143.63 444.92 47.16 444.92"/>
    <polygon class="cls-35" points="47.16 444.92 38.45 460 152.33 460 143.63 444.92 47.16 444.92"/>
    <polygon class="cls-2" points="45.73 442.46 35.6 460 35.6 460 45.73 442.46 45.73 442.46"/>
    <polygon class="cls-36" points="45.73 442.46 35.6 460 35.6 460 45.73 442.46 45.73 442.46"/>
    <polygon class="cls-4" points="45.73 442.46 35.6 460 38.45 460 47.16 444.92 143.63 444.92 152.33 460 155.18 460 145.05 442.46 45.73 442.46"/>
    <polygon class="cls-2" points="298.71 177.1 202.24 177.1 154.01 260.65 202.24 344.19 298.71 344.19 346.95 260.65 298.71 177.1"/>
    <polygon class="cls-37" points="298.71 177.1 202.24 177.1 154.01 260.65 202.24 344.19 298.71 344.19 346.95 260.65 298.71 177.1"/>
    <path class="cls-4" d="M300.14,174.64H200.82l-49.65,86,49.65,86h99.32l49.65-86Zm-1.43,169.55H202.24L154,260.65l48.23-83.55H298.7L347,260.65Z"/>
    <polygon class="cls-2" points="298.71 355.68 202.24 355.68 154.01 439.23 166 460 334.95 460 346.95 439.23 298.71 355.68"/>
    <polygon class="cls-38" points="298.71 355.68 202.24 355.68 154.01 439.23 166 460 334.95 460 346.95 439.23 298.71 355.68"/>
    <polygon class="cls-4" points="300.14 353.22 200.82 353.22 200.82 353.22 151.17 439.23 163.16 460 166 460 154.01 439.23 202.24 355.68 298.71 355.68 346.95 439.23 334.95 460 337.8 460 349.79 439.23 300.14 353.22"/>
    <polygon class="cls-39" points="490.13 324.33 472.67 294.1 472.67 294.1 490.13 324.33"/>
    <path class="cls-40" d="M502,349.89l-26.67-46.2a436.91,436.91,0,0,1,12.8,70.22Z"/>
    <polygon class="cls-2" points="355.91 263.88 306.26 349.88 355.91 435.89 306.26 349.89 355.91 263.88"/>
    <polygon class="cls-41" points="355.91 263.88 306.26 349.88 355.91 435.89 306.26 349.89 355.91 263.88"/>
    <polygon class="cls-2" points="455.23 263.88 472.67 294.1 472.67 294.1 455.23 263.88 455.23 263.88"/>
    <polygon class="cls-42" points="455.23 263.88 472.67 294.1 472.67 294.1 455.23 263.88 455.23 263.88"/>
    <polygon class="cls-2" points="455.23 435.89 474.49 402.52 455.23 435.89 455.23 435.89"/>
    <polygon class="cls-43" points="455.23 435.89 474.49 402.52 455.23 435.89 455.23 435.89"/>
    <path class="cls-2" d="M475.37,303.69,453.8,266.34H357.33L309.1,349.89l48.23,83.54H453.8l34.37-59.52A436.91,436.91,0,0,0,475.37,303.69Z"/>
    <path class="cls-44" d="M475.37,303.69,453.8,266.34H357.33L309.1,349.89l48.23,83.54H453.8l34.37-59.52A436.91,436.91,0,0,0,475.37,303.69Z"/>
    <path class="cls-4" d="M455.22,263.88H355.91l-49.65,86,49.65,86h99.31l19.27-33.37,14.08-24.38,16.31-28.25-14.75-25.56L472.67,294.1ZM453.8,433.43H357.33L309.1,349.89l48.23-83.55H453.8l21.57,37.35L502,349.89l-13.87,24Z"/>
    <polygon class="cls-45" points="1075.58 442.46 1085.71 460 1085.71 460 1075.58 442.46 1075.58 442.46"/>
    <polygon class="cls-46" points="977.69 444.92 968.98 460 1082.87 460 1074.16 444.92 977.69 444.92"/>
    <polygon class="cls-4" points="976.27 442.46 976.27 442.46 966.14 460 968.98 460 977.69 444.92 1074.16 444.92 1082.87 460 1085.71 460 1075.58 442.46 976.27 442.46"/>
    <polygon class="cls-47" points="1132.78 344.19 1229.25 344.19 1277.49 260.65 1229.25 177.1 1132.78 177.1 1084.55 260.65 1132.78 344.19"/>
    <path class="cls-4" d="M1131.36,346.65h99.31l49.66-86-49.66-86h-99.31l-49.66,86,49.66,86Zm1.42-169.55h96.47l48.24,83.55-48.24,83.54h-96.47l-48.23-83.54Z"/>
    <polygon class="cls-48" points="1229.25 355.68 1132.78 355.68 1084.55 439.23 1096.54 460 1265.49 460 1277.49 439.23 1229.25 355.68"/>
    <polygon class="cls-4" points="1230.67 353.22 1230.67 353.22 1131.36 353.22 1131.36 353.22 1081.7 439.23 1093.7 460 1096.54 460 1084.55 439.23 1132.78 355.68 1229.25 355.68 1277.49 439.23 1265.49 460 1268.33 460 1280.33 439.23 1230.67 353.22"/>
    <polygon class="cls-49" points="1239.64 349.88 1287.87 433.43 1349 433.43 1349 266.34 1287.87 266.34 1239.64 349.88"/>
    <polygon class="cls-50" points="1286.45 263.88 1286.45 263.88 1236.79 349.88 1286.45 435.89 1286.45 435.89 1236.79 349.88 1286.45 263.88"/>
    <polygon class="cls-4" points="1236.79 349.88 1286.45 435.89 1349 435.89 1349 433.43 1287.87 433.43 1239.64 349.88 1287.87 266.34 1349 266.34 1349 263.88 1286.45 263.88 1236.79 349.88"/>
    <polygon class="cls-51" points="1279.16 460 1349 460 1349 444.92 1287.87 444.92 1279.16 460"/>
    <polygon class="cls-52" points="1286.45 442.46 1276.32 460 1276.32 460 1286.45 442.46 1286.45 442.46"/>
    <polygon class="cls-4" points="1276.32 460 1279.16 460 1287.87 444.92 1349 444.92 1349 442.46 1286.45 442.46 1276.32 460"/>
  </g>
  <rect class="cls-53" x="0.63" width="1349" height="460"/>
</svg>
