<svg xmlns="http://www.w3.org/2000/svg" xmlns:xlink="http://www.w3.org/1999/xlink" viewBox="0 0 600.28 499.93">
  <defs>
    <style>
      .cls-1, .cls-12, .cls-15, .cls-16, .cls-3 {
        fill: none;
      }

      .cls-2 {
        isolation: isolate;
      }

      .cls-3 {
        stroke: #194459;
      }

      .cls-12, .cls-15, .cls-16, .cls-3 {
        stroke-miterlimit: 10;
      }

      .cls-4 {
        fill: #afb3bd;
      }

      .cls-5 {
        fill: #f5c5b3;
      }

      .cls-6 {
        fill: #42b2fc;
      }

      .cls-7 {
        fill: #fec4ad;
      }

      .cls-8 {
        fill: #e8d4e5;
      }

      .cls-20, .cls-26, .cls-8 {
        mix-blend-mode: multiply;
      }

      .cls-9 {
        fill: #7b2b1a;
      }

      .cls-10 {
        fill: #133a50;
      }

      .cls-11 {
        fill: #fff;
      }

      .cls-12, .cls-16 {
        stroke: #fff;
      }

      .cls-12 {
        stroke-width: 2px;
      }

      .cls-13 {
        fill: #1fb268;
      }

      .cls-14 {
        fill: #034943;
      }

      .cls-15 {
        stroke: #036961;
      }

      .cls-17 {
        fill: #21295b;
      }

      .cls-18 {
        fill: #025da2;
      }

      .cls-19 {
        fill: #075ea3;
      }

      .cls-20 {
        fill: #cfcfcf;
      }

      .cls-21 {
        fill: #0a5fa4;
      }

      .cls-22 {
        fill: #b3b3b3;
      }

      .cls-23 {
        fill: #00426b;
      }

      .cls-24 {
        clip-path: url(#clip-path);
      }

      .cls-25, .cls-26 {
        fill: #ffd71d;
      }

      .cls-27, .cls-29 {
        opacity: 0.7;
        mix-blend-mode: overlay;
      }

      .cls-27 {
        fill: url(#radial-gradient);
      }

      .cls-28 {
        fill: url(#linear-gradient);
      }

      .cls-29 {
        fill: #fd0;
      }

      .cls-30 {
        fill: #f6475f;
      }

      .cls-31 {
        fill: url(#linear-gradient-2);
      }

      .cls-32 {
        fill: url(#linear-gradient-3);
      }

      .cls-33 {
        fill: #471a16;
      }

      .cls-34 {
        fill: #b3e0ff;
      }
    </style>
    <clipPath id="clip-path" transform="translate(0 -0.12)">
      <rect class="cls-1" x="109.6" y="390.85" width="162.3" height="107.16" rx="14.22"/>
    </clipPath>
    <radialGradient id="radial-gradient" cx="126.74" cy="429.28" r="67.18" gradientUnits="userSpaceOnUse">
      <stop offset="0" stop-color="#fff"/>
      <stop offset="1" stop-color="#fff" stop-opacity="0"/>
    </radialGradient>
    <linearGradient id="linear-gradient" x1="190.75" y1="390.85" x2="190.75" y2="457.75" gradientUnits="userSpaceOnUse">
      <stop offset="0" stop-color="#ffd71d"/>
      <stop offset="1" stop-color="#feb200"/>
    </linearGradient>
    <linearGradient id="linear-gradient-2" x1="401.38" y1="394.6" x2="447.87" y2="394.6" gradientTransform="matrix(-1, 0, 0, 1, 881.41, 0)" gradientUnits="userSpaceOnUse">
      <stop offset="0" stop-color="#343a44"/>
      <stop offset="0.3" stop-color="#232d3e"/>
      <stop offset="0.64" stop-color="#182439"/>
      <stop offset="1" stop-color="#142138"/>
    </linearGradient>
    <linearGradient id="linear-gradient-3" x1="412.74" y1="388.26" x2="478.53" y2="388.26" xlink:href="#linear-gradient-2"/>
  </defs>
  <title>contact-us</title>
  <g class="cls-2">
    <g id="OBJECTS">
      <g>
        <line class="cls-3" y1="499.43" x2="600" y2="499.43"/>
        <path class="cls-4" d="M63.36,376.12c-30.77,19.35-46.89,62.95-22,121.06H531.44c8.31-21.05,13.29-48.71,14.85-65.17,3.41-35.92-8.8-73.22-30.32-92.92-54.46-49.84-99.74,19.39-128.36-9.88-16.53-16.89-15-64.31-27.89-86.32-28.55-48.58-82.29-72.54-135.27-63.94-35.26,5.72-67.06,24.38-86.46,56-26.57,43.24-7.23,74.21-19,104.09C106,372.31,83.91,363.19,63.36,376.12Z" transform="translate(0 -0.12)"/>
        <g>
          <g>
            <path class="cls-5" d="M106.94,299.89c-.07.28,4.48-2.54,4.48-2.54l1.92-3s1.88-1.21,3.22-1.87,3.83-4.67,3.83-4.67l-1-1.23a17.19,17.19,0,0,1-1.88,2,2.42,2.42,0,0,1-1.41,0,24.93,24.93,0,0,1,1.09-3,27.85,27.85,0,0,1,3-4.67l-.86-.91a25,25,0,0,0-1.88,2c-.49.65-1.45,2-1.45,2a26.12,26.12,0,0,1,1.61-3.33c.61-.91,1.28-2.14,1.28-2.14l-1-.69a23.68,23.68,0,0,0-1.77,2.52c-.6,1.07-1.71,2.86-1.71,2.86a35.59,35.59,0,0,1,1.27-3.53c.41-.79.57-1.2.57-1.2l-1.18-.4a9.3,9.3,0,0,0-1.4,2.5,13.07,13.07,0,0,1-.9,2.06,14.44,14.44,0,0,1,.74-3,2.78,2.78,0,0,0,.41-.95l-1-.19s-1.84,3.39-2.81,5.5-1.72,4.94-2.27,6.47a61,61,0,0,0-1.25,6.77Z" transform="translate(0 -0.12)"/>
            <path class="cls-6" d="M135.29,320,112,316a77.59,77.59,0,0,1-.25-11.94c.41-7,1.26-8.91,1.26-8.91l-6.25-.87s-1.23,5.49-2.12,9.44c-2,8.75-3.76,16.94-2.26,18.77,2.18,2.65,21.56,8.05,28.2,13C134.57,338.51,134.34,328.93,135.29,320Z" transform="translate(0 -0.12)"/>
          </g>
          <polygon class="cls-7" points="168.32 386.14 167.15 394.19 169.58 399.71 171.36 397.31 171.77 392.81 174.4 393.2 175.69 391.58 175.58 388.21 175.14 379.03 168.32 386.14"/>
          <path class="cls-6" d="M166.69,324.84c-1.8-.66-7.65-.23-7.65-.23s-.55,6.25,1.82,11.08,8.28,22.43,9,24.08-1.57,26.49-1.57,26.49l8.56-1.76s4.13-19.15,4.09-24-4.58-23.08-7.82-28.89S171.05,326.45,166.69,324.84Z" transform="translate(0 -0.12)"/>
          <path class="cls-7" d="M152.59,306.93s-1.88,8.26-.41,10.18c.87,1.12,4.52,5.13,4.52,5.13s-12.12,6.4-15.68,6.4-2.32-7.15-2.32-7.15,3.89-3.07,4.47-4.62a34.73,34.73,0,0,0,.9-6.05Z" transform="translate(0 -0.12)"/>
          <g>
            <path class="cls-5" d="M154,307.24s-.14-3,2.38-2.93c1.61,0,1.73,1.52.48,3.42-.53.8-.58,2.61-1.23,3.19s-1.47-.38-1.71-.88A6,6,0,0,1,154,307.24Z" transform="translate(0 -0.12)"/>
            <path class="cls-5" d="M140.44,307.24s.14-3-2.38-2.93c-1.61,0-1.74,1.52-.48,3.42.52.8.58,2.61,1.23,3.19.8.71,1.47-.38,1.71-.88A6,6,0,0,0,140.44,307.24Z" transform="translate(0 -0.12)"/>
            <path class="cls-5" d="M156.56,299.88a28.69,28.69,0,0,1-.5,3.06c-.06.34-.13.74-.2,1.21-.52,3.61-1.18,8.51-1.46,9.24-.47,1.22-3.05,3.19-4.28,3.91a7.38,7.38,0,0,1-5.52-.15c-1.23-.72-4-2.54-4.47-3.76-.29-.74-1-5.79-1.5-9.46-.06-.42-.11-.78-.17-1.1a27,27,0,0,1-.5-2.95c-.18-3.05,3.25-7.49,9.31-7.49C154.43,292.39,156.75,296.83,156.56,299.88Z" transform="translate(0 -0.12)"/>
            <path class="cls-8" d="M141,296a14.5,14.5,0,0,1,11.09.41l2.14-1.36a17.58,17.58,0,0,0-7.59-1.6C142.16,293.51,141,296,141,296Z" transform="translate(0 -0.12)"/>
            <path class="cls-9" d="M156.06,302.94c-.06.34-.13.74-.2,1.21-.52,3.61-1.18,8.51-1.46,9.24-.47,1.22-3.05,3.19-4.28,3.91a7.38,7.38,0,0,1-5.52-.15c-1.23-.72-4-2.54-4.47-3.76-.29-.74-1-5.79-1.5-9.46-.06-.42-.11-.78-.17-1.1l.5-.74s.89,5.24,2.25,6.86,1.63,1.7,1.63,1.7l2.79-.69.23-.06a6.62,6.62,0,0,1,3.25,0l.18.05.2.06,2.12.61s.49-.08,1.86-1.7,2-6.86,2-6.86Z" transform="translate(0 -0.12)"/>
            <path class="cls-9" d="M157,297.92c0,.1-.51,3.67-.71,4.23-.31.87-.55,1.49-.55,1.49l-.36-.8a12,12,0,0,1-1.09-4.7l-.06-3.06,1-.9C157.25,294.48,157.46,295.64,157,297.92Z" transform="translate(0 -0.12)"/>
            <path class="cls-9" d="M141.12,295.24h0l-.49,3.15a11.73,11.73,0,0,1-1.46,4.13l0,.08-.56.95-.39-1.34c-.17-.59-.58-3.57-.68-4,0-.13-.06-.26-.08-.38-.43-2.24,0-3.17,2-3.47Z" transform="translate(0 -0.12)"/>
            <path class="cls-9" d="M155.24,294.18l-1,.9-1.94.69a15.29,15.29,0,0,0-6.82-1.22c-3.89.3-4.42,1.41-4.47,1.48h0l-.4-.09-1.91-.42-.39-.08a11.88,11.88,0,0,1,.76-2.16c1.53-2.3,5.68-3.79,9.46-3.41l.38.05a9.1,9.1,0,0,1,5.14,2.12Z" transform="translate(0 -0.12)"/>
          </g>
          <path class="cls-10" d="M164.69,490.07v7.56H150.16s.55-2.74,7.44-4l1-3.56Z" transform="translate(0 -0.12)"/>
          <path class="cls-10" d="M142.59,490.07v7.56H128.06s.55-2.74,7.44-4l1-3.56Z" transform="translate(0 -0.12)"/>
          <path class="cls-10" d="M162.25,377.52s2,24.35,2.11,44.21,1.25,70.07,1.25,70.07h-8s-8.27-48.22-11.27-61-10.83-53.05-10.83-53.05Z" transform="translate(0 -0.12)"/>
          <path class="cls-10" d="M144.81,403.67s-1.5,30.26-1.8,36.22,0,51.88,0,51.88-7.52.21-7.52,0-7.08-48.9-8-63.58-.38-32.09-1.6-34.12,3.29-16.46,3.29-16.46l10.64,2.84Z" transform="translate(0 -0.12)"/>
          <path class="cls-11" d="M141.54,318.75s-3.33,7.56,1.68,8.4c8,1.32,10.4-8.88,10.4-8.88l8.79,4.53s-.16,54.72,3.3,71.42c2,9.7-31.38,5.08-36.28-3.53-4.23-7.45,8-69.37,8-69.37Z" transform="translate(0 -0.12)"/>
          <path class="cls-6" d="M155.69,319.22c-.24.33-12,34.84-8,67.32.93,7.57,14.74,1.31,18,1.31,0,0,1.56-24.24,1.95-33.26s-3.92-12-3.53-16.39,5.18-12.27,5.18-12.27Z" transform="translate(0 -0.12)"/>
          <path class="cls-6" d="M136,390c1.35-22.58,1.9-69.84,1.9-69.84l-8-.59s-4,39.64-4,44.14c0,1.79.54,23.56-.67,27.63C127.88,391.73,135.82,392.7,136,390Z" transform="translate(0 -0.12)"/>
        </g>
        <path class="cls-12" d="M222.74,306.93c-6.25,2.14-12.68,4.39-17.64,8.75s-8.17,11.43-6.08,17.7,10.81,9.92,15.85,5.64c1.81-1.54,2.93-4.17,2-6.34-1.93-4.29-8.62-2.28-11.76,1.22-3.73,4.14-6.09,9.81-5.17,15.3s5.72,10.43,11.29,10.42,13.51-8.4,8.74-11.28c-6.06-3.66-13.84,5.05-16.82,11.46s-1.12,15.11,5,18.71,20.37-.95,16.63-6.95c-4-6.35-15.64,2.8-17.19,10.11s4.17,15.33,11.59,16.23,20.29-7.55,15.15-13c-7.43-7.85-19.81,12.14-16.23,22.34s18.33,14.25,26.62,7.31c1.55-1.3,2.95-3.15,2.66-5.16-.48-3.33-5.05-4.27-8.24-3.21-8.35,2.79-12.11,14.47-7,21.6s17.41,7.27,22.7.25a6.07,6.07,0,0,0,1.46-4.77c-.53-2.33-3.29-3.65-5.64-3.21a9.2,9.2,0,0,0-5.6,4.2c-4.75,7.05-3.15,17.64,3.49,23s17.32,4.59,23.17-1.59c1.52-1.61,2.78-3.76,2.38-5.94-.47-2.52-3.16-4.21-5.72-4.15a10,10,0,0,0-6.69,3.38c-7.47,7.76-4.28,22.77,5.7,26.81s29.77-7.09,22.77-15.27c-4.68-5.46-13.91,6.35-12.73,13.44s9.34,11.93,16.29,10.1,16.12-11.8,10.74-16.58c-3.8-3.38-10,3.77-11.12,8.72a11.69,11.69,0,0,0,6,12.79c4.92,2.42,10.94,1,15.67-1.8s8.65-6.72,13.2-9.77a41.29,41.29,0,0,1,31.55-5.91" transform="translate(0 -0.12)"/>
        <g>
          <path class="cls-13" d="M538.31,339.51C528.18,333,437.89,409.16,441.2,469.3c0,0,17.57-23.74,32.89-35.31s16.82-23.68,16.79-35.67,22.88-7,25.46-20.34C520.91,354.44,547.42,345.33,538.31,339.51Z" transform="translate(0 -0.12)"/>
          <g>
            <path class="cls-14" d="M544.24,395.54C529.65,404.37,534,416.15,525.35,423c-6.26,5-16.7,2.38-21.9,9.2-5.86,7.67.8,18.24,1.3,27.5.68,12.78-10.72,22.36-22.31,26.24-13.45,4.51-30.86,3.1-38.22-10.27-8.7-15.79-2.19-39.59,13.06-47,3.7-1.8,8.41-2.29,11.43-5.94,5.11-6.15,1.83-15,4.2-22.83,2.3-7.63,9.85-13,16.8-15.38s14-2.86,20.82-5.61c9.24-3.76,17.34-12,25-17.58,6.87-5,31-14.29,34.91,2C574.05,378.18,556.49,388.11,544.24,395.54Z" transform="translate(0 -0.12)"/>
            <path class="cls-15" d="M545.74,371.8s-59.62,30-107.19,126.65" transform="translate(0 -0.12)"/>
          </g>
          <path class="cls-16" d="M581.75,417s-76.67-.86-140.37,72.22" transform="translate(0 -0.12)"/>
          <g>
            <path class="cls-13" d="M543.73,451.15c-7.3,2.92-9.29,15.24-17.15,16.8-5.73,1.14-11.83-3.93-17.43-1.3-6.3,3-5.19,11.85-7.77,17.89-3.55,8.34-14.13,10.7-23,9.39-10.35-1.53-21.46-8.1-22.15-19-.82-12.86,11-25.85,23.42-25.59,3,.07,6.3,1.29,9.46,0,5.32-2.24,5.92-8.93,9.95-13.13s10.61-5,16-4.28,10.21,2.76,15.59,3.22c7.32.63,15.28-2,22.14-3,6.12-.91,31.11-.43,22.55,12.66C569.34,453.84,553.47,447.25,543.73,451.15Z" transform="translate(0 -0.12)"/>
            <path class="cls-3" d="M559.5,439.08s-53.26,4.53-115.18,50.41" transform="translate(0 -0.12)"/>
          </g>
          <path class="cls-14" d="M386,496.33s12.12-21.22,14.1-23.4c12.46-13.8,29-13.95,45.83-10.47,4.87,1,17.77,7.78,22.45,6.85,3.64-.73,8-14.58,19.68-13.85S500.4,470,500.4,470s7.32-16.1,19-14.61,11.66,12.35,2.92,20.4c0,0,18.59-5.57,36.63,3.07s9.43,20,9.43,20Z" transform="translate(0 -0.12)"/>
        </g>
        <g>
          <path class="cls-13" d="M61.69,339.51C71.82,333,162.11,409.16,158.8,469.3c0,0-17.57-23.74-32.89-35.31s-16.82-23.68-16.79-35.67-22.88-7-25.46-20.34C79.09,354.44,52.58,345.33,61.69,339.51Z" transform="translate(0 -0.12)"/>
          <g>
            <path class="cls-14" d="M55.76,395.54c14.59,8.83,10.29,20.61,18.89,27.49,6.26,5,16.7,2.38,21.9,9.2,5.86,7.67-.8,18.24-1.3,27.5C94.57,472.51,106,482.09,117.56,486c13.45,4.51,30.86,3.1,38.22-10.27,8.7-15.79,2.19-39.59-13.06-47-3.7-1.8-8.41-2.29-11.43-5.94-5.11-6.15-1.83-15-4.2-22.83-2.3-7.63-9.85-13-16.8-15.38s-14-2.86-20.82-5.61c-9.24-3.76-17.34-12-25-17.58-6.87-5-31-14.29-34.91,2C26,378.18,43.51,388.11,55.76,395.54Z" transform="translate(0 -0.12)"/>
            <path class="cls-15" d="M54.26,371.8s59.62,30,107.19,126.65" transform="translate(0 -0.12)"/>
          </g>
          <path class="cls-16" d="M18.25,417s76.67-.86,140.37,72.22" transform="translate(0 -0.12)"/>
          <g>
            <path class="cls-13" d="M56.27,451.15c7.3,2.92,9.29,15.24,17.15,16.8,5.73,1.14,11.83-3.93,17.43-1.3,6.3,3,5.19,11.85,7.77,17.89,3.55,8.34,14.13,10.7,23,9.39,10.35-1.53,21.46-8.1,22.15-19,.82-12.86-11-25.85-23.42-25.59-3,.07-6.3,1.29-9.46,0-5.32-2.24-5.92-8.93-10-13.13s-10.61-5-16-4.28-10.21,2.76-15.59,3.22c-7.32.63-15.28-2-22.14-3-6.12-.91-31.11-.43-22.55,12.66C30.66,453.84,46.53,447.25,56.27,451.15Z" transform="translate(0 -0.12)"/>
            <path class="cls-3" d="M40.5,439.08s53.26,4.53,115.18,50.41" transform="translate(0 -0.12)"/>
          </g>
          <path class="cls-14" d="M214,496.33s-12.12-21.22-14.1-23.4c-12.46-13.8-29-13.95-45.83-10.47-4.87,1-17.77,7.78-22.45,6.85-3.64-.73-8-14.58-19.68-13.85S99.6,470,99.6,470s-7.32-16.1-19-14.61S69,467.78,77.7,475.83c0,0-18.59-5.57-36.63,3.07s-9.43,20-9.43,20Z" transform="translate(0 -0.12)"/>
        </g>
        <g>
          <g>
            <path class="cls-17" d="M344.62,498.18H325.76a4,4,0,0,1-4-3.67l-1.24-14.89h29.31l-1.24,14.89A4,4,0,0,1,344.62,498.18Z" transform="translate(0 -0.12)"/>
            <path class="cls-17" d="M456,498.18H437.12a4,4,0,0,1-4-3.67l-1.24-14.89H461.2L460,494.51A4,4,0,0,1,456,498.18Z" transform="translate(0 -0.12)"/>
          </g>
          <path class="cls-18" d="M459.24,460.08H322.5l9.67-70.49a11.1,11.1,0,0,1,11-9.6h95.4a11.1,11.1,0,0,1,11,9.6Z" transform="translate(0 -0.12)"/>
          <path class="cls-19" d="M440.79,446.41H341L348,375.59a10.31,10.31,0,0,1,10.25-9.28h65.16a10.31,10.31,0,0,1,10.25,9.28Z" transform="translate(0 -0.12)"/>
          <polygon class="cls-20" points="324.69 443.96 322.5 459.96 459.24 459.96 457.05 443.96 324.69 443.96"/>
          <polygon class="cls-21" points="474.05 487.31 307.69 487.31 310.77 451.17 470.96 451.17 474.05 487.31"/>
          <g>
            <circle class="cls-20" cx="390.87" cy="410.39" r="30.43" transform="translate(-160.6 279.6) rotate(-33.07)"/>
            <circle class="cls-11" cx="390.87" cy="410.39" r="26.32" transform="translate(-9.49 9.13) rotate(-1.34)"/>
            <g>
              <path class="cls-22" d="M398.22,432a3.44,3.44,0,0,1-2.42-1,2.8,2.8,0,0,1-.42-.53,4.08,4.08,0,0,1-.32-.58,4.71,4.71,0,0,1-.19-.64,3.71,3.71,0,0,1-.07-.67,3.44,3.44,0,0,1,1-2.41,3.48,3.48,0,0,1,3.09-.94,3.55,3.55,0,0,1,.63.2,3.77,3.77,0,0,1,.6.31,4.24,4.24,0,0,1,.52.43,3.44,3.44,0,0,1,1,2.41,3.71,3.71,0,0,1-.07.67,4.71,4.71,0,0,1-.19.64,5.33,5.33,0,0,1-.31.58,3.31,3.31,0,0,1-.43.53,3.42,3.42,0,0,1-.52.42,2.28,2.28,0,0,1-.6.31,2.88,2.88,0,0,1-.63.2A3.11,3.11,0,0,1,398.22,432Z" transform="translate(0 -0.12)"/>
              <path class="cls-22" d="M387.63,433.23h0a3.43,3.43,0,0,1-2.9-3.87h0a3.43,3.43,0,0,1,3.87-2.9h0a3.44,3.44,0,0,1,2.9,3.87h0a3.42,3.42,0,0,1-3.39,2.94h0A2.74,2.74,0,0,1,387.63,433.23Zm-11-4.67h0a3.43,3.43,0,0,1-.58-4.8h0a3.42,3.42,0,0,1,4.79-.59h0a3.43,3.43,0,0,1,.59,4.8h0a3.4,3.4,0,0,1-2.7,1.31h0A3.4,3.4,0,0,1,376.65,428.56ZM369.48,419a3.41,3.41,0,0,1,1.88-4.44h0a3.41,3.41,0,0,1,4.45,1.88h0a3.42,3.42,0,0,1-1.89,4.45h0a3.38,3.38,0,0,1-1.28.24h0A3.39,3.39,0,0,1,369.48,419Zm1.44-8a3.43,3.43,0,0,1-2.91-3.86h0a3.42,3.42,0,0,1,3.87-2.9h0a3.42,3.42,0,0,1,2.91,3.85h0a3.42,3.42,0,0,1-3.39,2.94h0A4,4,0,0,1,370.92,411Zm2.36-10a3.41,3.41,0,0,1-.6-4.79h0a3.4,3.4,0,0,1,4.79-.6h0a3.4,3.4,0,0,1,.6,4.79h0a3.39,3.39,0,0,1-2.7,1.32h0A3.36,3.36,0,0,1,373.28,401Zm27.58-3.4a3.41,3.41,0,0,1-.6-4.79h0a3.43,3.43,0,0,1,4.8-.61h0a3.44,3.44,0,0,1,.59,4.81h0A3.44,3.44,0,0,1,403,398.3h0A3.42,3.42,0,0,1,400.86,397.58Zm-20.53-4.14a3.41,3.41,0,0,1,1.89-4.44h0a3.43,3.43,0,0,1,4.45,1.89h0a3.43,3.43,0,0,1-1.9,4.45h0a3.53,3.53,0,0,1-1.27.24h0A3.41,3.41,0,0,1,380.33,393.44Zm12.78.86a3.42,3.42,0,0,1-2.9-3.86h0a3.4,3.4,0,0,1,3.86-2.9h0a3.41,3.41,0,0,1,2.91,3.85h0a3.43,3.43,0,0,1-3.38,2.94h0A4,4,0,0,1,393.11,394.3Z" transform="translate(0 -0.12)"/>
              <path class="cls-22" d="M409.1,406.45a4.91,4.91,0,0,1-.67-.06,3.65,3.65,0,0,1-.64-.2,4.75,4.75,0,0,1-.59-.31,4.4,4.4,0,0,1-.52-.43,3.41,3.41,0,0,1-1-2.41,3.14,3.14,0,0,1,.07-.68,2.88,2.88,0,0,1,.2-.63,2.85,2.85,0,0,1,.31-.6,3.45,3.45,0,0,1,.42-.51,2.59,2.59,0,0,1,.52-.42,2.82,2.82,0,0,1,.59-.32,3.61,3.61,0,0,1,.64-.19,3.46,3.46,0,0,1,3.08.93,3,3,0,0,1,.43.51,3.41,3.41,0,0,1,.31.6,2.88,2.88,0,0,1,.2.63,3.13,3.13,0,0,1,.06.68,3.41,3.41,0,0,1-3.41,3.41Z" transform="translate(0 -0.12)"/>
            </g>
          </g>
        </g>
        <g>
          <path class="cls-23" d="M351.63,299.53a14.6,14.6,0,0,1,2.93-15.27s24.75,16,52.41,11.52c0,0,3,8.34-5.47,16.06C401.5,311.84,371.89,317.46,351.63,299.53Z" transform="translate(0 -0.12)"/>
          <path class="cls-18" d="M394,264c-17.81-15-51.54-17.12-94.24-10.25-36.72,5.91-74.11,19.78-86.6,39.37-5.68,8.92-1.82,33.7-1.82,33.7,33.82,2.11,46.21-27,46.21-27s-2.26-8.26,5.32-11.9c26.51-12.76,67.63-17.12,82.92-13.35a11.33,11.33,0,0,1,8.78,9.62s20.89,23.73,52.34,11.1C406.9,295.36,402.08,270.85,394,264Z" transform="translate(0 -0.12)"/>
          <path class="cls-23" d="M264.45,313.18a14.61,14.61,0,0,0-7.57-13.58s-18.47,23-46.15,27.38c0,0-.26,8.87,10.24,13.54C221,340.52,250.84,336.56,264.45,313.18Z" transform="translate(0 -0.12)"/>
        </g>
        <g class="cls-24">
          <rect class="cls-25" x="109.6" y="390.73" width="162.3" height="107.16" rx="14.22"/>
          <path class="cls-26" d="M271.9,405.07a14.22,14.22,0,0,0-14.22-14.22H123.83a14.23,14.23,0,0,0-14.23,14.22l73.6,59.67a11.87,11.87,0,0,0,14.93,0Z" transform="translate(0 -0.12)"/>
          <path class="cls-27" d="M119.08,487V408.23A14.22,14.22,0,0,1,133.3,394H266.52a14.07,14.07,0,0,0-8.84-3.16H123.83a14.23,14.23,0,0,0-14.23,14.22v78.72A14.22,14.22,0,0,0,123.83,498h.63A14.1,14.1,0,0,1,119.08,487Z" transform="translate(0 -0.12)"/>
          <path class="cls-28" d="M181.78,454.36,109.6,390.85H271.9l-72.18,63.51A13.56,13.56,0,0,1,181.78,454.36Z" transform="translate(0 -0.12)"/>
          <path class="cls-29" d="M181.78,454.36,109.6,390.85H271.9l-72.18,63.51A13.56,13.56,0,0,1,181.78,454.36Z" transform="translate(0 -0.12)"/>
        </g>
        <g>
          <g>
            <path class="cls-7" d="M320.47,326s4.62-13.33,4.95-14.79c1.91-8.67,2.43-27.45,2.31-31.44s-.49-7.5-.57-8a18,18,0,0,0-2.57-3.16,5,5,0,0,1-.77.08l0,.5-1.07-.92-.89-.05-.09.42-1.28-.62-1.22,0s.79,2.54,1.24,4.08,0,1.67,0,1.67a3.4,3.4,0,0,1-1.38.25,9.42,9.42,0,0,0-1.74-.07s3.73,4.85,3.9,5.3a8.73,8.73,0,0,1,1.5,7,178.48,178.48,0,0,1-5.31,19.41c.12-.28-5,14.38-5,14.38Z" transform="translate(0 -0.12)"/>
            <path class="cls-30" d="M318,343.67c1.43-11.22,7.17-24.32,7.17-24.32s-8.77-1.74-11-4.86c0,0-3,7.38-4.76,11.06-1.93,4.06-4.62,8.49-1.23,10.9S317.49,347.57,318,343.67Z" transform="translate(0 -0.12)"/>
          </g>
          <path class="cls-10" d="M284.36,490.92v7.21h13.87s-.53-2.61-7.1-3.81l-1-3.4Z" transform="translate(0 -0.12)"/>
          <path class="cls-10" d="M305.45,490.92v7.21h13.86s-.52-2.61-7.1-3.81l-1-3.4Z" transform="translate(0 -0.12)"/>
          <path class="cls-10" d="M286.69,383.55s-1.94,20.16-2,39.1-1.2,69.92-1.2,69.92h7.65s7.89-49.08,10.76-61.26,10.32-47.53,10.32-47.53Z" transform="translate(0 -0.12)"/>
          <path class="cls-7" d="M298.46,316.71s-.5,3.86-.91,5.82a15.51,15.51,0,0,1-1,3.6c-.66,1.32-4.73,5.37-4.73,5.37s12.68,6.7,16.41,6.7,2.42-7.48,2.42-7.48-4.06-3.22-4.67-4.84a36,36,0,0,1-.94-6.33Z" transform="translate(0 -0.12)"/>
          <path class="cls-10" d="M303.33,405.42s1.43,31.95,1.72,37.63,0,49.49,0,49.49,7.17.2,7.17,0,6.76-49.73,7.63-63.73.37-30.61,1.53-32.54-3.14-12.62-3.14-12.62l-10.15-.37Z" transform="translate(0 -0.12)"/>
          <path class="cls-30" d="M294.36,327.73s-10.71-4.3-12.48-.77c-1.34,2.67-.19,19.8.41,24.59.52,4.17,3.4,39.21,3.4,39.21s4,6.2,23.27,3.73c7.42-.95,11.08-4.57,11.08-4.57s-2.09-41.81-2.66-46a89.56,89.56,0,0,0-2.56-10.74l-5.73-3.78s1.83,4-3.35,5.19C295.32,336.9,294.36,327.73,294.36,327.73Z" transform="translate(0 -0.12)"/>
          <path class="cls-7" d="M308.59,302.13c1.22.49,3.34,1.59,3.58,2.6a42.54,42.54,0,0,1,1.21,5.73c.11,1.78.36,5.15.36,7.24s-1.27,6.35-1.75,6.79a10.41,10.41,0,0,1-5.19.84c-1.19-.34-8.18-3.95-8.62-8.38,0,0-1.24.65-3.52-3-.59-1,1.46-8.12,1.73-9.4.67-3.1,8.32-.65,10-1.14A3.68,3.68,0,0,0,308.59,302.13Z" transform="translate(0 -0.12)"/>
          <path class="cls-10" d="M312.17,304.73s-5.36,3.35-7.45,3.52-5.16,3.05-5.1,3.94a1.92,1.92,0,0,1-.88,1.5s-1.3-2.07-2.37-1.86c-2.11.43-.87,3,.28,3.61a17.17,17.17,0,0,0,2.26.92,11.11,11.11,0,0,1,.1,2.23,10.13,10.13,0,0,1-.9,2.62s-2.47-5.21-4.68-7.15c-5.27-4.62-1.46-13.2,3.73-14.81,2.1-.65,7.85-1.08,10.66.17A7.64,7.64,0,0,1,312.17,304.73Z" transform="translate(0 -0.12)"/>
          <path class="cls-17" d="M301,312.06c.08.21.62.25.72.29s.13.13,1.09,1.61c.72,1.09,1.91,1.44,4.13.69,1.71-.56,1.47-2,1.59-2.72s.27-.82.54-.86.42,0,.77.63.51,2.19,2.29,1.93c1.22-.19,1.55-.52,1.71-1.49a9.91,9.91,0,0,0,.14-2.35c-.05-.64-.06-1-.39-1.07a6.24,6.24,0,0,0-1.46.16,5.84,5.84,0,0,0-2.39.63c-.58.41-.52.67-.82.73s-.36-.21-1-.41a20.84,20.84,0,0,0-4.57.49c-1.06.18-2.52.58-2.49,1A3.21,3.21,0,0,0,301,312.06Zm9.16-1.58c.05-.52.09-.46,1.4-.76s1.45-.24,1.72,0a2.82,2.82,0,0,1,.32,2.11,1.45,1.45,0,0,1-1.27,1.52c-1.15.2-1.42-.37-1.75-1.17A5,5,0,0,1,310.11,310.48Zm-7.64.86c.18-.29,1.95-.53,3.29-.7s1.78-.22,2,.25a4.7,4.7,0,0,1,.17,1.72c0,.86-.2,1.62-2.28,2a2.24,2.24,0,0,1-2.79-1.24A2.43,2.43,0,0,1,302.47,311.34ZM298,312.66l2.93-.6,1-1.44s-1.13.16-3,.57a5.79,5.79,0,0,0-1.76.83A2.93,2.93,0,0,1,298,312.66Z" transform="translate(0 -0.12)"/>
          <g>
            <path class="cls-7" d="M274.93,327.25s-2.53-16.05-2.56-17.56c-.14-8.87,4.35-20.78,5.27-24.67s1.52-3.28,1.71-3.79,6.62-1.49,6.62-1.49a16.77,16.77,0,0,1,2.14-.77c.4,0,2.1-.54,2.1-.54l-1,1.77s-4,3.06-4.28,3.46a8.79,8.79,0,0,0-2.87,6.58c-.17,7.94-.14,16.54-.14,16.54-.06-.29,3.8,16.43,3.8,16.43Z" transform="translate(0 -0.12)"/>
            <path class="cls-30" d="M282.29,351.55c-2.73-7.73-9-28.51-9-28.51s9.27-2.33,11.88-5.17L289.64,331c1.44,4.26,3.6,9-.05,11S283.6,355.27,282.29,351.55Z" transform="translate(0 -0.12)"/>
          </g>
        </g>
        <g>
          <g>
            <path class="cls-31" d="M461.58,364.52c2.41,2.24,4.11,1.49,7.72,13.86,2.31,7.9,10.73,47.77,10.73,47.77l-5,2.18c-6.8-19.05-6.79-19-14.74-34.5a68.91,68.91,0,0,1-5.47-14.89l-14.69-.89c-9.19-3.77-6-17.18-6-17.18S459.17,362.28,461.58,364.52Z" transform="translate(0 -0.12)"/>
            <path class="cls-32" d="M405.92,352.66l13.26-8.49,12.82,10,16,5.16-.09,0c6.43,2.23,13.76,5.49,16,7.58,2.41,2.24,7.16,5.42,3.33,17.73-2.44,7.86-13.1,47.7-13.1,47.7l-5.4-1s1.92-23.08,3.84-40.35c.93-8.37,1.25-10.71,1.25-10.71s-35.67,3.89-47.16-2.18C398.61,373.9,405.92,359.1,405.92,352.66Z" transform="translate(0 -0.12)"/>
            <path class="cls-33" d="M454.51,429.46s-.16,1.45-2.48,2.11a4,4,0,0,1-3.91-1.27l-.51,4.74,7.42,5.23h6.16l-3.33-3.7Z" transform="translate(0 -0.12)"/>
            <path class="cls-33" d="M479.24,422.9a2.55,2.55,0,0,1-.92,3.36,4,4,0,0,1-4.11,0l1,4.66,17.52-5.48Z" transform="translate(0 -0.12)"/>
          </g>
          <g>
            <path class="cls-7" d="M459.07,304.88a37.28,37.28,0,0,1-2.92-3.47l-.67-3.05s-1.18-1.58-2.09-2.53-1.73-5-1.73-5l1.19-.72a15.25,15.25,0,0,0,.93,2.23,2.09,2.09,0,0,0,1.16.47,21.86,21.86,0,0,0,0-2.84,24.64,24.64,0,0,0-1.08-4.79l1-.49a23.24,23.24,0,0,1,.94,2.2c.21.7.58,2.13.58,2.13a24.23,24.23,0,0,0-.31-3.25c-.22-.94-.4-2.15-.4-2.15l1-.27a20.64,20.64,0,0,1,.69,2.62c.16,1.07.53,2.89.53,2.89a32.15,32.15,0,0,0,0-3.3c-.1-.78-.11-1.17-.11-1.17l1.1,0a8.29,8.29,0,0,1,.39,2.49,11.6,11.6,0,0,0,.11,2,12.68,12.68,0,0,0,.31-2.7,2.39,2.39,0,0,1,0-.91l.85.14s.48,3.36.63,5.4-.09,4.61-.11,6-.05,2.56-.05,2.56Z" transform="translate(0 -0.12)"/>
            <path class="cls-7" d="M436.6,308.82a133.19,133.19,0,0,0,13.68,9.77s2.54-6.38,3.75-10.9c1.45-5.4,1.88-7.88,1.88-7.88l5.16-.43s-1.64,13.81-3.67,23.17c-2,9.1-4.45,7.47-6.63,7s-22.71-11.48-22.71-11.48l2.19-11.72S431.72,304.81,436.6,308.82Z" transform="translate(0 -0.12)"/>
            <path class="cls-33" d="M414.91,275.67c1.1-.62,6.4-1.06,9.72,1,6.35,3.91,3.3,14.62,2.91,17.09s1.88,6.91,1.84,9.86-.74,4-2.94,6.86a5.51,5.51,0,0,0-.82,2.28,21,21,0,0,1-3-8.71c-.52-5.06-1.59-3.88-4.13-9.45s-2.65-13.95-2.65-13.95Z" transform="translate(0 -0.12)"/>
            <path class="cls-33" d="M420.19,279.31l-5.28-3.64a7.73,7.73,0,0,0-7.13,3.41c-2.62,4-3.53,9.83-4.12,14.19s-2.13,12.58-2,15.83,4.06,3.7,4.06,3.7L419,307.06a39.58,39.58,0,0,1-.12-14.41A71.13,71.13,0,0,0,420.19,279.31Z" transform="translate(0 -0.12)"/>
            <path class="cls-7" d="M424.61,280.42c.28,1.65,1.56,6.5,1.68,9.61s-.24,8.23-2.3,9.65-5.93.28-8.76-.89-3.52-3.16-4.07-5-.36-6.68.29-10.15a6.18,6.18,0,0,1,5.41-5.36C419.41,277.83,424.61,280.42,424.61,280.42Z" transform="translate(0 -0.12)"/>
            <path class="cls-7" d="M413,292s.72,7.73-.9,11.37c-1.13,2.51-5.67,3.58-5.67,3.58a25.66,25.66,0,0,0,4.39,13.67c4.56,6.71,18.83,9.2,18.83,9.2A62.9,62.9,0,0,0,434,317.92a13.89,13.89,0,0,0-2.52-11.14s-3.85-1.26-5.7-1.95c-4.5-1.7-4-8.84-4-8.84Z" transform="translate(0 -0.12)"/>
            <path class="cls-13" d="M421.71,309.91s-9.23-2.34-12-4.14l-9.14,5.44s-5.38,5.12,3.79,18.6c0,0,3.48,12.27-2.17,33.9,0,0,1.53,5.57,10.1,2.6,7.37-2.55,7.54-4.54,14-6.18,9.54-2.42,12-3.91,12-3.91-5-7.53-4.12-19.29-4.12-19.29s5.68-5.43,3.24-11c-3.51-8-4.69-19.37-4.69-19.37l-4.9-1.24a36.77,36.77,0,0,1-3.91,4.16A2.07,2.07,0,0,1,421.71,309.91Z" transform="translate(0 -0.12)"/>
            <path class="cls-11" d="M425.73,304.83s-1.13,4.18-4,5.08c0,0,1.13,5.73,3.84,4.73,3.81-1.39,2.32-9.31,2.32-9.31Z" transform="translate(0 -0.12)"/>
            <path class="cls-11" d="M408.61,305.07s1.81,8.74,6.64,9.45,6.46-4.61,6.46-4.61-10.24-3-11.24-6.13Z" transform="translate(0 -0.12)"/>
            <path class="cls-33" d="M417.12,278.22c-.89.06-1.55,4.27-1.64,6.62s-3.6,4.21-2.05,9.38,1.34,10.17,3.42,15.84-.51,7.74-1.63,9.69a75.17,75.17,0,0,1-6-7.33,5.88,5.88,0,0,0-6.37-2.85s6.8-13.22,6.57-16.78-.86-9,2-12.26S417.12,278.22,417.12,278.22Z" transform="translate(0 -0.12)"/>
            <path class="cls-7" d="M413.54,288.77s-1.89-2.07-3.14-1.75-1.33,2.19-.38,3.72,4.48,2.4,4.48,2.4Z" transform="translate(0 -0.12)"/>
            <path class="cls-33" d="M417.85,284.74a24.46,24.46,0,0,0,5.37-.39c3.43-.38,4.87.5,4.87.5l-1.29-5.7s-4-2.23-6.84-2.21c-3.62,0-6.78,1.41-5,2.58S417.85,284.74,417.85,284.74Z" transform="translate(0 -0.12)"/>
            <g>
              <path class="cls-7" d="M408.33,317.6c-.61,7.16-2.72,27.55-2.72,27.55,6.52,5.7,15.73,15.17,15.73,15.17s-2.62,5.18-3.74,4.3c-9-7-19.23-11.17-20-16.05-1.21-8-1.62-28.2,1.33-34.76C401.25,308.75,409,310,408.33,317.6Z" transform="translate(0 -0.12)"/>
              <path class="cls-7" d="M425.3,361c2.72,1,4.44,2,4.28,3.05-.12.7-2.44-.58-3.84-.54a7.81,7.81,0,0,0,3.32,3.26c1.8.88,2.81,2.11,1.84,3.16s-2.74,2.5-3.9,2-5.28-3.41-6.83-4.2-2.17-2.75-3-3.28,1.46-4.64,1.46-4.64c.43.12,2.67.6,2.67.6a15,15,0,0,0,2.23.19A5.42,5.42,0,0,1,425.3,361Z" transform="translate(0 -0.12)"/>
            </g>
          </g>
        </g>
      </g>
      <polygon class="cls-25" points="45.71 181.78 48.94 191.72 59.39 191.72 50.94 197.86 54.17 207.8 45.71 201.66 37.26 207.8 40.49 197.86 32.03 191.72 42.48 191.72 45.71 181.78"/>
      <polygon class="cls-25" points="401.63 187.51 404.86 197.45 415.31 197.45 406.86 203.59 410.09 213.53 401.63 207.39 393.18 213.53 396.41 203.59 387.95 197.45 398.4 197.45 401.63 187.51"/>
      <polygon class="cls-25" points="581.75 138.66 584.98 148.59 595.43 148.59 586.97 154.74 590.2 164.68 581.75 158.53 573.29 164.68 576.52 154.74 568.07 148.59 578.52 148.59 581.75 138.66"/>
      <g>
        <path class="cls-34" d="M242.52,105a25,25,0,0,0-7.28,1.06,20.81,20.81,0,0,0-39,2.49,15.45,15.45,0,0,0-5.38-1,14.18,14.18,0,0,0-14.52,13.79H263C263,112.34,253.81,105,242.52,105Z" transform="translate(0 -0.12)"/>
        <path class="cls-34" d="M121.94,20.89a46.2,46.2,0,0,0-13.41,2A37.65,37.65,0,0,0,73.45.12C55.68.12,40.84,11.76,36.83,27.46a27.67,27.67,0,0,0-9.9-1.8C12.2,25.66.2,37,.2,51.12H159.61C159.61,34.41,142.75,20.89,121.94,20.89Z" transform="translate(0 -0.12)"/>
        <path class="cls-34" d="M575.08,47.93a30.83,30.83,0,0,0-9,1.32A25.22,25.22,0,0,0,542.61,34c-11.89,0-21.82,7.8-24.5,18.3a18.7,18.7,0,0,0-6.62-1.21c-9.88,0-17.88,7.56-17.88,17H600.28C600.28,57,589,47.93,575.08,47.93Z" transform="translate(0 -0.12)"/>
        <path class="cls-34" d="M369,29.63a9.62,9.62,0,0,0-2.77.4,7.92,7.92,0,0,0-14.81.95,6.21,6.21,0,0,0-2-.37,5.39,5.39,0,0,0-5.52,5.24h32.91C376.78,32.42,373.3,29.63,369,29.63Z" transform="translate(0 -0.12)"/>
      </g>
    </g>
  </g>
</svg>
