<svg id="Layer_1" data-name="Layer 1" xmlns="http://www.w3.org/2000/svg" viewBox="0 0 99.2 99.2">
  <defs>
    <style>
      .cls-1 {
        fill: #fff;
        stroke: #1d1d1b;
        stroke-miterlimit: 10;
        stroke-width: 0.5px;
      }

      .cls-2 {
        fill: #1d1d1b;
      }
    </style>
  </defs>
  <title>passport-template</title>
  <rect class="cls-1" x="0.25" y="0.25" width="98.7" height="98.7"/>
  <g>
    <path class="cls-2" d="M12.62,7.59h2.84a2.55,2.55,0,0,1,1.71.53,1.84,1.84,0,0,1,.62,1.46,1.86,1.86,0,0,1-.62,1.47,2.54,2.54,0,0,1-1.71.53h-2v3.13h-.82Zm2.77,3.31a1.8,1.8,0,0,0,1.19-.34,1.22,1.22,0,0,0,.4-1,1.21,1.21,0,0,0-.4-1,1.85,1.85,0,0,0-1.19-.34h-2V10.9Z" transform="translate(-0.04 -0.01)"/>
    <path class="cls-2" d="M23.81,14.71,23,12.88H19.31l-.79,1.83h-.85L20.8,7.59h.72l3.13,7.12ZM19.6,12.2h3.14L21.17,8.54Z" transform="translate(-0.04 -0.01)"/>
    <path class="cls-2" d="M25.25,13.89l.31-.63a3.21,3.21,0,0,0,1.08.64,3.79,3.79,0,0,0,1.28.19,2.26,2.26,0,0,0,1.32-.33,1.1,1.1,0,0,0,.47-.95.78.78,0,0,0-.23-.58,1.64,1.64,0,0,0-.59-.36c-.24-.08-.57-.17-1-.27a8.74,8.74,0,0,1-1.35-.39,2.08,2.08,0,0,1-.86-.6,1.56,1.56,0,0,1-.33-1A1.8,1.8,0,0,1,25.7,8.5a2.13,2.13,0,0,1,.9-.73A3.42,3.42,0,0,1,28,7.51a4.16,4.16,0,0,1,1.38.23,3.13,3.13,0,0,1,1.08.67L30.11,9a3.87,3.87,0,0,0-1-.63A3.14,3.14,0,0,0,28,8.21a2.07,2.07,0,0,0-1.3.36,1.14,1.14,0,0,0-.47,1,.89.89,0,0,0,.41.81,3.92,3.92,0,0,0,1.26.47c.61.15,1.09.29,1.44.41a2.18,2.18,0,0,1,.88.56,1.41,1.41,0,0,1,.35,1,1.82,1.82,0,0,1-.32,1.06,2.06,2.06,0,0,1-.92.7,3.52,3.52,0,0,1-1.39.25A3.79,3.79,0,0,1,25.25,13.89Z" transform="translate(-0.04 -0.01)"/>
    <path class="cls-2" d="M31.48,13.89l.31-.63a3.21,3.21,0,0,0,1.08.64,3.79,3.79,0,0,0,1.28.19,2.26,2.26,0,0,0,1.32-.33,1.1,1.1,0,0,0,.47-.95.78.78,0,0,0-.23-.58,1.64,1.64,0,0,0-.59-.36c-.24-.08-.57-.17-1-.27a8.74,8.74,0,0,1-1.35-.39,2.08,2.08,0,0,1-.86-.6,1.56,1.56,0,0,1-.33-1,1.8,1.8,0,0,1,.32-1.07,2.13,2.13,0,0,1,.9-.73,3.42,3.42,0,0,1,1.37-.26,4.16,4.16,0,0,1,1.38.23,3.13,3.13,0,0,1,1.08.67L36.34,9a3.87,3.87,0,0,0-1-.63,3.14,3.14,0,0,0-1.12-.2,2.07,2.07,0,0,0-1.3.36,1.14,1.14,0,0,0-.47,1,.89.89,0,0,0,.41.81,3.92,3.92,0,0,0,1.26.47c.61.15,1.09.29,1.44.41a2.18,2.18,0,0,1,.88.56,1.41,1.41,0,0,1,.35,1,1.82,1.82,0,0,1-.32,1.06,2.06,2.06,0,0,1-.92.7,3.52,3.52,0,0,1-1.39.25A3.79,3.79,0,0,1,31.48,13.89Z" transform="translate(-0.04 -0.01)"/>
    <path class="cls-2" d="M38.11,7.59H41a2.55,2.55,0,0,1,1.71.53,1.84,1.84,0,0,1,.62,1.46,1.86,1.86,0,0,1-.62,1.47,2.54,2.54,0,0,1-1.71.53h-2v3.13h-.82Zm2.77,3.31a1.8,1.8,0,0,0,1.19-.34,1.22,1.22,0,0,0,.4-1,1.21,1.21,0,0,0-.4-1,1.85,1.85,0,0,0-1.19-.34h-2V10.9Z" transform="translate(-0.04 -0.01)"/>
    <path class="cls-2" d="M45.81,14.35a2.83,2.83,0,0,1-1.13-1.26,4.51,4.51,0,0,1-.39-1.94,4.51,4.51,0,0,1,.39-1.94A2.92,2.92,0,0,1,45.8,8a3.29,3.29,0,0,1,1.73-.44A3.34,3.34,0,0,1,49.26,8a3,3,0,0,1,1.12,1.26,4.46,4.46,0,0,1,.39,1.93,4.44,4.44,0,0,1-.4,1.94,3,3,0,0,1-1.12,1.27,3.58,3.58,0,0,1-3.44,0Zm3.48-1a3.35,3.35,0,0,0,.63-2.18A3.32,3.32,0,0,0,49.29,9a2.42,2.42,0,0,0-3.53,0,3.31,3.31,0,0,0-.63,2.16,3.35,3.35,0,0,0,.63,2.18,2.41,2.41,0,0,0,3.53,0Z" transform="translate(-0.04 -0.01)"/>
    <path class="cls-2" d="M57.86,14.71H57l-.88-2.37a1,1,0,0,0-.45-.59,1.75,1.75,0,0,0-.8-.15H53.08v3.11h-.81V7.59H55.1a2.7,2.7,0,0,1,1.76.51,1.8,1.8,0,0,1,.62,1.47,1.81,1.81,0,0,1-1.42,1.85,1.08,1.08,0,0,1,.53.27,1.76,1.76,0,0,1,.37.61ZM55,10.92c1.09,0,1.64-.44,1.64-1.34a1.21,1.21,0,0,0-.4-1A1.93,1.93,0,0,0,55,8.27h-2v2.65Z" transform="translate(-0.04 -0.01)"/>
    <path class="cls-2" d="M60.72,14.71V8.29H58.24v-.7H64v.7H61.55v6.42Z" transform="translate(-0.04 -0.01)"/>
    <path class="cls-2" d="M67.24,13.89l.31-.63a3.21,3.21,0,0,0,1.08.64,3.79,3.79,0,0,0,1.28.19,2.26,2.26,0,0,0,1.32-.33,1.1,1.1,0,0,0,.47-.95.78.78,0,0,0-.23-.58,1.56,1.56,0,0,0-.59-.36c-.24-.08-.57-.17-1-.27a8.74,8.74,0,0,1-1.35-.39,2.08,2.08,0,0,1-.86-.6,1.56,1.56,0,0,1-.33-1,1.8,1.8,0,0,1,.32-1.07,2.13,2.13,0,0,1,.9-.73A3.42,3.42,0,0,1,70,7.51a4.16,4.16,0,0,1,1.38.23,3.13,3.13,0,0,1,1.08.67L72.1,9a4,4,0,0,0-1-.63A3.14,3.14,0,0,0,70,8.21a2.07,2.07,0,0,0-1.3.36,1.14,1.14,0,0,0-.47,1,.89.89,0,0,0,.41.81,3.92,3.92,0,0,0,1.26.47c.61.15,1.09.29,1.44.41a2.18,2.18,0,0,1,.88.56,1.41,1.41,0,0,1,.35,1,1.82,1.82,0,0,1-.32,1.06,2.06,2.06,0,0,1-.92.7,3.52,3.52,0,0,1-1.39.25A3.79,3.79,0,0,1,67.24,13.89Z" transform="translate(-0.04 -0.01)"/>
    <path class="cls-2" d="M73.87,14.71V7.59h.82v7.12Z" transform="translate(-0.04 -0.01)"/>
    <path class="cls-2" d="M77,14h4.18v.69H76V14.1L80.1,8.28H76V7.59h5v.6Z" transform="translate(-0.04 -0.01)"/>
    <path class="cls-2" d="M82.41,14.71V7.59h4.5v.68H83.22v2.48h3.49v.69H83.22V14h3.69v.68Z" transform="translate(-0.04 -0.01)"/>
    <path class="cls-2" d="M7.25,19.59h2.84a2.55,2.55,0,0,1,1.71.53,1.84,1.84,0,0,1,.62,1.46,1.86,1.86,0,0,1-.62,1.47,2.54,2.54,0,0,1-1.71.53h-2v3.13H7.25ZM10,22.9a1.8,1.8,0,0,0,1.19-.34,1.39,1.39,0,0,0,0-1.95A1.85,1.85,0,0,0,10,20.27H8.07V22.9Z" transform="translate(-0.04 -0.01)"/>
    <path class="cls-2" d="M18.84,19.59h.82v7.12h-.82V23.44H14.57v3.27h-.81V19.59h.81v3.16h4.27Z" transform="translate(-0.04 -0.01)"/>
    <path class="cls-2" d="M22.68,26.35a2.83,2.83,0,0,1-1.13-1.26,5,5,0,0,1,0-3.88A2.92,2.92,0,0,1,22.67,20a3.29,3.29,0,0,1,1.73-.44,3.34,3.34,0,0,1,1.73.44,3,3,0,0,1,1.12,1.26,4.94,4.94,0,0,1,0,3.87,3,3,0,0,1-1.12,1.27,3.58,3.58,0,0,1-3.44,0Zm3.48-1a3.35,3.35,0,0,0,.63-2.18A3.32,3.32,0,0,0,26.16,21a2.42,2.42,0,0,0-3.53,0A3.31,3.31,0,0,0,22,23.14a3.35,3.35,0,0,0,.63,2.18,2.41,2.41,0,0,0,3.53,0Z" transform="translate(-0.04 -0.01)"/>
    <path class="cls-2" d="M30.42,26.71V20.29H27.94v-.7h5.79v.7H31.25v6.42Z" transform="translate(-0.04 -0.01)"/>
    <path class="cls-2" d="M35.55,26.35a2.83,2.83,0,0,1-1.13-1.26,5,5,0,0,1,0-3.88A2.92,2.92,0,0,1,35.54,20a3.29,3.29,0,0,1,1.73-.44A3.34,3.34,0,0,1,39,20a3,3,0,0,1,1.12,1.26,4.94,4.94,0,0,1,0,3.87A3,3,0,0,1,39,26.35a3.58,3.58,0,0,1-3.44,0Zm3.48-1a3.35,3.35,0,0,0,.63-2.18A3.32,3.32,0,0,0,39,21a2.42,2.42,0,0,0-3.53,0,3.31,3.31,0,0,0-.63,2.16,3.35,3.35,0,0,0,.63,2.18,2.41,2.41,0,0,0,3.53,0Z" transform="translate(-0.04 -0.01)"/>
    <path class="cls-2" d="M47.64,23v3.3a4,4,0,0,1-1.1.36,7.16,7.16,0,0,1-1.38.13,3.64,3.64,0,0,1-1.83-.43,2.83,2.83,0,0,1-1.18-1.26,4.37,4.37,0,0,1-.4-2,4.31,4.31,0,0,1,.4-1.94A2.93,2.93,0,0,1,43.31,20a3.52,3.52,0,0,1,1.79-.44,4,4,0,0,1,1.37.23,2.86,2.86,0,0,1,1.08.67l-.32.63a3.82,3.82,0,0,0-1-.63,3,3,0,0,0-1.11-.2,2.32,2.32,0,0,0-1.86.76,3.25,3.25,0,0,0-.64,2.17,3.26,3.26,0,0,0,.66,2.21,2.42,2.42,0,0,0,1.92.75,5.2,5.2,0,0,0,1.71-.28V23.65H45.12V23Z" transform="translate(-0.04 -0.01)"/>
    <path class="cls-2" d="M54.91,26.71H54l-.88-2.37a1,1,0,0,0-.45-.59,1.75,1.75,0,0,0-.8-.15H50.13v3.11h-.81V19.59h2.83a2.7,2.7,0,0,1,1.76.51,1.8,1.8,0,0,1,.62,1.47,1.81,1.81,0,0,1-1.42,1.85,1.08,1.08,0,0,1,.53.27,1.76,1.76,0,0,1,.37.61Zm-2.83-3.79c1.09,0,1.64-.44,1.64-1.34a1.21,1.21,0,0,0-.4-1,1.93,1.93,0,0,0-1.24-.33H50.13v2.65Z" transform="translate(-0.04 -0.01)"/>
    <path class="cls-2" d="M61.63,26.71l-.78-1.83H57.13l-.79,1.83h-.85l3.13-7.12h.72l3.13,7.12ZM57.42,24.2h3.14L59,20.54Z" transform="translate(-0.04 -0.01)"/>
    <path class="cls-2" d="M63.53,19.59h2.84a2.55,2.55,0,0,1,1.71.53,1.84,1.84,0,0,1,.62,1.46,1.86,1.86,0,0,1-.62,1.47,2.54,2.54,0,0,1-1.71.53h-2v3.13h-.82ZM66.3,22.9a1.8,1.8,0,0,0,1.19-.34,1.39,1.39,0,0,0,0-1.95,1.85,1.85,0,0,0-1.19-.34h-2V22.9Z" transform="translate(-0.04 -0.01)"/>
    <path class="cls-2" d="M75.12,19.59h.82v7.12h-.82V23.44H70.85v3.27H70V19.59h.81v3.16h4.27Z" transform="translate(-0.04 -0.01)"/>
    <path class="cls-2" d="M81.57,26.35a2.83,2.83,0,0,1-1.13-1.26,5,5,0,0,1,0-3.88A2.92,2.92,0,0,1,81.56,20a3.29,3.29,0,0,1,1.73-.44A3.34,3.34,0,0,1,85,20a3,3,0,0,1,1.12,1.26,4.94,4.94,0,0,1,0,3.87A3,3,0,0,1,85,26.35a3.58,3.58,0,0,1-3.44,0Zm3.48-1a3.35,3.35,0,0,0,.63-2.18A3.32,3.32,0,0,0,85.05,21a2.42,2.42,0,0,0-3.53,0,3.31,3.31,0,0,0-.63,2.16,3.35,3.35,0,0,0,.63,2.18,2.41,2.41,0,0,0,3.53,0Z" transform="translate(-0.04 -0.01)"/>
    <path class="cls-2" d="M88,26.71V19.59h4.4v.69H88.84v2.47h3.39v.69H88.84v3.27Z" transform="translate(-0.04 -0.01)"/>
    <path class="cls-2" d="M21.82,38.35a2.85,2.85,0,0,1-1.14-1.26,4.38,4.38,0,0,1-.4-2,4.29,4.29,0,0,1,.4-1.93A3,3,0,0,1,21.82,32a3.43,3.43,0,0,1,1.76-.44,3.9,3.9,0,0,1,1.35.23,2.9,2.9,0,0,1,1.07.67l-.31.63a3.63,3.63,0,0,0-1-.63,3.15,3.15,0,0,0-1.09-.19,2.28,2.28,0,0,0-1.82.76,3.26,3.26,0,0,0-.64,2.16,3.3,3.3,0,0,0,.64,2.18,2.22,2.22,0,0,0,1.82.76,2.94,2.94,0,0,0,1.09-.19,3.22,3.22,0,0,0,1-.63l.31.63a2.92,2.92,0,0,1-1.07.68,3.9,3.9,0,0,1-1.35.22A3.33,3.33,0,0,1,21.82,38.35Z" transform="translate(-0.04 -0.01)"/>
    <path class="cls-2" d="M32.64,38.71l-.78-1.83H28.14l-.79,1.83H26.5l3.13-7.12h.72l3.13,7.12ZM28.43,36.2h3.14L30,32.54Z" transform="translate(-0.04 -0.01)"/>
    <path class="cls-2" d="M39.47,31.59h.78v7.12h-.64L35.31,33v5.73h-.77V31.59h.63l4.3,5.73Z" transform="translate(-0.04 -0.01)"/>
    <path class="cls-2" d="M42,31.59h2.39a3.57,3.57,0,1,1,0,7.12H42ZM44.34,38a2.74,2.74,0,0,0,2.07-.72,3,3,0,0,0,.7-2.15c0-1.9-.93-2.85-2.77-2.85H42.82V38Z" transform="translate(-0.04 -0.01)"/>
    <path class="cls-2" d="M49.46,38.71V31.59h.82v7.12Z" transform="translate(-0.04 -0.01)"/>
    <path class="cls-2" d="M52,31.59h2.39a3.57,3.57,0,1,1,0,7.12H52ZM54.38,38a2.74,2.74,0,0,0,2.07-.72,3,3,0,0,0,.7-2.15c0-1.9-.93-2.85-2.77-2.85H52.86V38Z" transform="translate(-0.04 -0.01)"/>
    <path class="cls-2" d="M64.78,38.71,64,36.88H60.28l-.79,1.83h-.85l3.13-7.12h.72l3.13,7.12ZM60.57,36.2h3.14l-1.57-3.66Z" transform="translate(-0.04 -0.01)"/>
    <path class="cls-2" d="M67.57,38.71V32.29H65.09v-.7h5.79v.7H68.4v6.42Z" transform="translate(-0.04 -0.01)"/>
    <path class="cls-2" d="M71.88,38.71V31.59h4.5v.68H72.69v2.48h3.49v.69H72.69V38h3.69v.68Z" transform="translate(-0.04 -0.01)"/>
    <path class="cls-2" d="M12.23,50.71l-.78-1.83H7.73l-.79,1.83H6.09l3.13-7.12h.72l3.13,7.12ZM8,48.2h3.14L9.59,44.54Z" transform="translate(-0.04 -0.01)"/>
    <path class="cls-2" d="M15,50.71V44.29H12.54v-.7h5.79v.7H15.85v6.42Z" transform="translate(-0.04 -0.01)"/>
    <path class="cls-2" d="M21.05,50.71V44.29H18.57v-.7h5.79v.7H21.88v6.42Z" transform="translate(-0.04 -0.01)"/>
    <path class="cls-2" d="M25.36,50.71V43.59h4.5v.68H26.17v2.48h3.49v.69H26.17V50h3.69v.68Z" transform="translate(-0.04 -0.01)"/>
    <path class="cls-2" d="M30.74,49.89l.31-.63a3.21,3.21,0,0,0,1.08.64,3.79,3.79,0,0,0,1.28.19,2.26,2.26,0,0,0,1.32-.33,1.1,1.1,0,0,0,.47-.95.78.78,0,0,0-.23-.58,1.56,1.56,0,0,0-.59-.36c-.24-.08-.57-.17-1-.27a8.74,8.74,0,0,1-1.35-.39,2.08,2.08,0,0,1-.86-.6,1.56,1.56,0,0,1-.33-1,1.8,1.8,0,0,1,.32-1.07,2.13,2.13,0,0,1,.9-.73,3.42,3.42,0,0,1,1.37-.26,4.16,4.16,0,0,1,1.38.23,3.13,3.13,0,0,1,1.08.67L35.6,45a3.87,3.87,0,0,0-1-.63,3.14,3.14,0,0,0-1.12-.2,2.07,2.07,0,0,0-1.3.36,1.14,1.14,0,0,0-.47,1,.89.89,0,0,0,.41.81,3.92,3.92,0,0,0,1.26.47c.61.15,1.09.29,1.44.41a2.18,2.18,0,0,1,.88.56,1.41,1.41,0,0,1,.35,1,1.82,1.82,0,0,1-.32,1.06,2.06,2.06,0,0,1-.92.7,3.49,3.49,0,0,1-1.39.25A3.79,3.79,0,0,1,30.74,49.89Z" transform="translate(-0.04 -0.01)"/>
    <path class="cls-2" d="M38.94,50.71V44.29H36.46v-.7h5.79v.7H39.77v6.42Z" transform="translate(-0.04 -0.01)"/>
    <path class="cls-2" d="M43.25,50.71V43.59h4.5v.68H44.06v2.48h3.49v.69H44.06V50h3.69v.68Z" transform="translate(-0.04 -0.01)"/>
    <path class="cls-2" d="M49.13,43.59h2.39a3.57,3.57,0,0,1,2.64.93,4.15,4.15,0,0,1,0,5.26,3.57,3.57,0,0,1-2.64.93H49.13ZM51.47,50a2.74,2.74,0,0,0,2.07-.72,3,3,0,0,0,.7-2.15c0-1.9-.93-2.85-2.77-2.85H50V50Z" transform="translate(-0.04 -0.01)"/>
    <path class="cls-2" d="M64.19,47.67a1.8,1.8,0,0,1,.34,1.1,1.77,1.77,0,0,1-.62,1.44,2.7,2.7,0,0,1-1.75.5h-3V43.59h2.86a2.66,2.66,0,0,1,1.69.49,1.73,1.73,0,0,1-.51,3A1.8,1.8,0,0,1,64.19,47.67ZM60,46.75h1.92a1.92,1.92,0,0,0,1.21-.32,1.12,1.12,0,0,0,.41-.94c0-.81-.54-1.22-1.62-1.22H60Zm3.31,3a1.17,1.17,0,0,0,.4-1c0-.87-.55-1.31-1.63-1.31H60V50h2.08A2,2,0,0,0,63.32,49.72Z" transform="translate(-0.04 -0.01)"/>
    <path class="cls-2" d="M71.23,43.59l-2.8,4.24v2.88h-.82V47.82l-2.8-4.23h1L68,47.09l2.26-3.5Z" transform="translate(-0.04 -0.01)"/>
    <path class="cls-2" d="M76.27,50.71V44.29H73.79v-.7h5.79v.7H77.1v6.42Z" transform="translate(-0.04 -0.01)"/>
    <path class="cls-2" d="M85.66,43.59h.82v7.12h-.82V47.44H81.39v3.27h-.81V43.59h.81v3.16h4.27Z" transform="translate(-0.04 -0.01)"/>
    <path class="cls-2" d="M88.24,50.71V43.59h4.5v.68H89.05v2.48h3.49v.69H89.05V50h3.69v.68Z" transform="translate(-0.04 -0.01)"/>
    <path class="cls-2" d="M5.66,55.59H8.5a2.53,2.53,0,0,1,1.72.54,2,2,0,0,1,0,2.92,2.5,2.5,0,0,1-1.71.53h-2v3.13H5.66Zm2.77,3.32a1.78,1.78,0,0,0,1.19-.35,1.39,1.39,0,0,0,0-2,1.83,1.83,0,0,0-1.19-.34H6.48v2.64Z" transform="translate(-0.04 -0.01)"/>
    <path class="cls-2" d="M17.76,62.71h-.87L16,60.34a1,1,0,0,0-.44-.59,1.91,1.91,0,0,0-.81-.15H13v3.11h-.81V55.59H15a2.71,2.71,0,0,1,1.77.51,1.82,1.82,0,0,1,.61,1.48A1.89,1.89,0,0,1,17,58.75a2,2,0,0,1-1.06.67,1,1,0,0,1,.53.27,1.63,1.63,0,0,1,.37.61Zm-2.83-3.79c1.09,0,1.64-.44,1.64-1.34a1.18,1.18,0,0,0-.4-1,1.93,1.93,0,0,0-1.24-.33H13v2.65Z" transform="translate(-0.04 -0.01)"/>
    <path class="cls-2" d="M19.1,62.71V55.59h.82v7.12Z" transform="translate(-0.04 -0.01)"/>
    <path class="cls-2" d="M26.61,55.59h.78v7.12h-.64L22.45,57v5.73h-.77V55.59h.63l4.3,5.74Z" transform="translate(-0.04 -0.01)"/>
    <path class="cls-2" d="M30.43,62.35a2.87,2.87,0,0,1-1.15-1.26,4.38,4.38,0,0,1-.4-2,4.29,4.29,0,0,1,.4-1.93A2.9,2.9,0,0,1,30.43,56a3.3,3.3,0,0,1,1.75-.45,4,4,0,0,1,1.36.23,2.88,2.88,0,0,1,1.06.68l-.31.62a3.33,3.33,0,0,0-1-.62,3,3,0,0,0-1.1-.2,2.26,2.26,0,0,0-1.81.76,3.26,3.26,0,0,0-.65,2.16,3.3,3.3,0,0,0,.64,2.18,2.24,2.24,0,0,0,1.82.76,3,3,0,0,0,1.1-.19,3.18,3.18,0,0,0,1-.63l.31.63a2.76,2.76,0,0,1-1.06.68,4,4,0,0,1-1.36.22A3.3,3.3,0,0,1,30.43,62.35Z" transform="translate(-0.04 -0.01)"/>
    <path class="cls-2" d="M36,62.71V55.59h.82v7.12Z" transform="translate(-0.04 -0.01)"/>
    <path class="cls-2" d="M38.56,55.59H41.4a2.53,2.53,0,0,1,1.72.54,1.8,1.8,0,0,1,.61,1.45,1.85,1.85,0,0,1-.62,1.47,2.5,2.5,0,0,1-1.71.53h-2v3.13h-.82Zm2.77,3.32a1.78,1.78,0,0,0,1.19-.35,1.39,1.39,0,0,0,0-2,1.83,1.83,0,0,0-1.19-.34H39.38v2.64Z" transform="translate(-0.04 -0.01)"/>
    <path class="cls-2" d="M49.75,62.71,49,60.88H45.25l-.79,1.83h-.85l3.13-7.12h.72l3.13,7.12Zm-4.21-2.5h3.14l-1.57-3.67Z" transform="translate(-0.04 -0.01)"/>
    <path class="cls-2" d="M51.65,62.71V55.59h.82V62H56v.7Z" transform="translate(-0.04 -0.01)"/>
    <path class="cls-2" d="M61,62.35a2.81,2.81,0,0,1-1.12-1.26,4.35,4.35,0,0,1-.4-1.93,4.52,4.52,0,0,1,.39-1.95A2.84,2.84,0,0,1,61,56a3.55,3.55,0,0,1,3.46,0,2.84,2.84,0,0,1,1.12,1.25,4.49,4.49,0,0,1,.39,1.93,4.45,4.45,0,0,1-.39,1.94,3,3,0,0,1-1.13,1.27,3.58,3.58,0,0,1-3.44,0Zm3.48-1a4.11,4.11,0,0,0,0-4.36,2.19,2.19,0,0,0-1.77-.76,2.17,2.17,0,0,0-1.77.77,3.31,3.31,0,0,0-.63,2.16,3.4,3.4,0,0,0,.63,2.19,2.43,2.43,0,0,0,3.53,0Z" transform="translate(-0.04 -0.01)"/>
    <path class="cls-2" d="M67.43,62.71V55.59h4.4v.7H68.24v2.46h3.39v.7H68.24v3.26Z" transform="translate(-0.04 -0.01)"/>
    <path class="cls-2" d="M77.39,62.71V56.29H74.91v-.7H80.7v.7H78.22v6.42Z" transform="translate(-0.04 -0.01)"/>
    <path class="cls-2" d="M86.78,55.59h.82v7.12h-.82V59.45H82.51v3.26H81.7V55.59h.81v3.16h4.27Z" transform="translate(-0.04 -0.01)"/>
    <path class="cls-2" d="M89.36,62.71V55.59h4.5v.68H90.17v2.48h3.49v.7H90.17V62h3.69v.67Z" transform="translate(-0.04 -0.01)"/>
    <path class="cls-2" d="M4.52,74.71V67.59h.82v7.12Z" transform="translate(-0.04 -0.01)"/>
    <path class="cls-2" d="M12,67.59h.78v7.12h-.64L7.87,69v5.73H7.1V67.59h.63L12,73.33Z" transform="translate(-0.04 -0.01)"/>
    <path class="cls-2" d="M14.16,73.89l.31-.63a3.65,3.65,0,0,0,1.08.65,4.17,4.17,0,0,0,1.28.18,2.27,2.27,0,0,0,1.33-.33,1.09,1.09,0,0,0,.46-1,.79.79,0,0,0-.22-.58,1.5,1.5,0,0,0-.59-.35,10,10,0,0,0-1-.28,9.45,9.45,0,0,1-1.35-.39,2.06,2.06,0,0,1-.86-.6,1.55,1.55,0,0,1-.33-1,1.88,1.88,0,0,1,.32-1.08,2.22,2.22,0,0,1,.91-.73,3.37,3.37,0,0,1,1.36-.26,3.85,3.85,0,0,1,1.38.24,2.71,2.71,0,0,1,1.08.67L19,69a3.54,3.54,0,0,0-1-.62,3,3,0,0,0-1.13-.21,2.11,2.11,0,0,0-1.3.36,1.16,1.16,0,0,0-.47,1,.9.9,0,0,0,.41.81,4.09,4.09,0,0,0,1.26.48,14.12,14.12,0,0,1,1.45.4,2.08,2.08,0,0,1,.87.56,1.37,1.37,0,0,1,.35,1,1.74,1.74,0,0,1-.32,1,2,2,0,0,1-.91.7,3.54,3.54,0,0,1-1.4.25A3.76,3.76,0,0,1,14.16,73.89Z" transform="translate(-0.04 -0.01)"/>
    <path class="cls-2" d="M22.36,74.71V68.29H19.88v-.7h5.79v.7H23.19v6.42Z" transform="translate(-0.04 -0.01)"/>
    <path class="cls-2" d="M26.67,74.71V67.59h.82v7.12Z" transform="translate(-0.04 -0.01)"/>
    <path class="cls-2" d="M31,74.71V68.29H28.49v-.7h5.79v.7H31.8v6.42Z" transform="translate(-0.04 -0.01)"/>
    <path class="cls-2" d="M36,74.07a2.92,2.92,0,0,1-.72-2.15V67.59H36V72a2.16,2.16,0,0,0,.51,1.56,2,2,0,0,0,1.51.53,2,2,0,0,0,1.5-.53,2.2,2.2,0,0,0,.5-1.56V67.59h.82v4.33a2.9,2.9,0,0,1-.72,2.14,2.81,2.81,0,0,1-2.1.73A2.84,2.84,0,0,1,36,74.07Z" transform="translate(-0.04 -0.01)"/>
    <path class="cls-2" d="M44.31,74.71V68.29H41.83v-.7h5.79v.7H45.14v6.42Z" transform="translate(-0.04 -0.01)"/>
    <path class="cls-2" d="M48.62,74.71V67.59h.82v7.12Z" transform="translate(-0.04 -0.01)"/>
    <path class="cls-2" d="M52.46,74.35a2.81,2.81,0,0,1-1.12-1.26,4.35,4.35,0,0,1-.4-1.93,4.52,4.52,0,0,1,.39-2A2.84,2.84,0,0,1,52.45,68a3.55,3.55,0,0,1,3.46,0A2.84,2.84,0,0,1,57,69.21a4.49,4.49,0,0,1,.39,1.93A4.45,4.45,0,0,1,57,73.08a3,3,0,0,1-1.13,1.27,3.58,3.58,0,0,1-3.44,0Zm3.48-1A4.11,4.11,0,0,0,56,69a2.19,2.19,0,0,0-1.77-.76,2.17,2.17,0,0,0-1.77.77,3.31,3.31,0,0,0-.63,2.16,3.4,3.4,0,0,0,.63,2.19,2.43,2.43,0,0,0,3.53,0Z" transform="translate(-0.04 -0.01)"/>
    <path class="cls-2" d="M63.85,67.59h.78v7.12H64L59.69,69v5.73h-.77V67.59h.63l4.3,5.74Z" transform="translate(-0.04 -0.01)"/>
    <path class="cls-2" d="M78.08,67.59h.81L76.4,74.71h-.7l-2-5.83-2,5.83h-.69l-2.5-7.12h.84l2,6,2.07-6H74l2,6Z" transform="translate(-0.04 -0.01)"/>
    <path class="cls-2" d="M80.11,74.71V67.59h.82v7.12Z" transform="translate(-0.04 -0.01)"/>
    <path class="cls-2" d="M84.41,74.71V68.29H81.93v-.7h5.79v.7H85.24v6.42Z" transform="translate(-0.04 -0.01)"/>
    <path class="cls-2" d="M93.8,67.59h.82v7.12H93.8V71.45H89.53v3.26h-.81V67.59h.81v3.16H93.8Z" transform="translate(-0.04 -0.01)"/>
    <path class="cls-2" d="M37.67,85.89l.31-.63a3.42,3.42,0,0,0,1.08.65,4.12,4.12,0,0,0,1.28.18,2.29,2.29,0,0,0,1.33-.33,1.09,1.09,0,0,0,.46-1,.79.79,0,0,0-.22-.58,1.5,1.5,0,0,0-.59-.35,10,10,0,0,0-1-.28A8.74,8.74,0,0,1,39,83.21a2.06,2.06,0,0,1-.86-.6,1.55,1.55,0,0,1-.33-1,1.88,1.88,0,0,1,.32-1.08,2.16,2.16,0,0,1,.91-.73,3.37,3.37,0,0,1,1.36-.26,3.93,3.93,0,0,1,1.38.24,2.71,2.71,0,0,1,1.08.67l-.32.62a3.54,3.54,0,0,0-1-.62,3,3,0,0,0-1.13-.21,2.09,2.09,0,0,0-1.3.36,1.16,1.16,0,0,0-.47,1,.9.9,0,0,0,.41.81,3.89,3.89,0,0,0,1.26.48,14.89,14.89,0,0,1,1.45.4,2.08,2.08,0,0,1,.87.56,1.42,1.42,0,0,1,.35,1,1.81,1.81,0,0,1-.32,1,2,2,0,0,1-.91.7,3.57,3.57,0,0,1-1.4.25A3.76,3.76,0,0,1,37.67,85.89Z" transform="translate(-0.04 -0.01)"/>
    <path class="cls-2" d="M44.3,86.71V79.59h4.5v.68H45.11v2.48H48.6v.7H45.11V86H48.8v.67Z" transform="translate(-0.04 -0.01)"/>
    <path class="cls-2" d="M55.48,86.71l-.78-1.83H51l-.79,1.83h-.85l3.13-7.12h.72l3.13,7.12Zm-4.21-2.5h3.14l-1.57-3.67Z" transform="translate(-0.04 -0.01)"/>
    <path class="cls-2" d="M57.38,86.71V79.59h.82V86h3.57v.7Z" transform="translate(-0.04 -0.01)"/>
  </g>
</svg>
